<svg width="631" height="538" viewBox="0 0 631 538" fill="none" xmlns="http://www.w3.org/2000/svg">
<g clip-path="url(#clip0)">
<path d="M268.102 189.729L268.87 169.604L256.425 165.609C255.964 158.696 254.735 151.937 253.045 145.331L263.493 137.649L256.425 118.753L243.366 119.829C240.293 113.684 236.606 107.846 232.611 102.315L239.371 91.1005L225.544 76.3524L213.867 82.3438C208.643 77.8887 203.112 73.8944 197.274 70.361L199.118 57.4563L180.681 49.1605L172.231 58.9926C165.778 56.8418 159.171 55.3056 152.257 54.3838L149.185 41.7864L128.904 41.0183L124.909 53.4621C117.996 54.0766 111.235 55.1519 104.629 56.8418L96.7933 45.7807L77.8956 52.8476L78.971 65.9058C72.8254 68.9783 66.9871 72.6654 61.4561 76.8133L50.2403 70.0537L35.4909 83.8801L41.4828 95.5557C37.0273 100.779 33.0326 106.31 29.4989 112.147L16.5931 110.15L8.14293 128.585L18.1295 137.035C15.9786 143.487 14.4422 150.247 13.5203 157.006L0.768201 160.232L0 180.511L12.4449 184.505C12.9058 191.419 14.1349 198.178 15.8249 204.784L5.3774 212.465L12.4449 231.362L25.5043 230.286C28.5771 236.431 32.2644 242.269 36.2591 247.8L29.4989 259.014L43.3265 273.762L55.0032 267.771C60.2269 272.226 65.758 276.221 71.5963 279.754L69.599 292.659L88.0358 300.954L96.486 291.122C102.939 293.273 109.545 294.809 116.459 295.731L119.532 308.328L139.813 309.097L143.807 296.653C150.721 296.038 157.481 294.963 164.088 293.273L171.77 303.72L190.667 296.653L189.746 283.595C195.891 280.522 201.729 276.835 207.261 272.687L218.476 279.447L233.226 265.62L227.234 253.945C231.689 248.721 235.684 243.191 239.218 237.353L252.123 239.35L260.574 220.915L250.587 212.465C252.738 206.013 254.274 199.407 255.196 192.494L268.102 189.729ZM131.67 255.02C87.4212 253.484 52.8522 216.46 54.3886 172.215C55.925 127.971 92.9523 93.4049 137.201 94.7876C181.449 96.3239 216.018 133.348 214.482 177.592C212.945 221.99 175.918 256.556 131.67 255.02Z" fill="#EBEBEB"/>
<path d="M613.638 122.901L618.708 118.139L616.711 114.145C618.247 112.301 619.63 110.458 620.859 108.46L625.315 109.075L628.234 102.776L624.854 99.8573C625.622 97.5529 626.083 95.2485 626.544 92.9441L630.999 91.8687L631.153 84.9555L626.851 83.5729C626.697 81.2685 626.236 78.8104 625.775 76.506L629.309 73.8944L626.851 67.2885L622.242 67.5957C621.166 65.4449 619.937 63.4478 618.554 61.6043L620.859 57.7636L616.096 52.6939L612.101 54.6911C610.258 53.1548 608.414 51.7722 606.417 50.5432L606.878 46.088L600.578 43.1691L597.659 46.5489C595.355 45.7807 593.05 45.3199 590.745 45.0126L589.67 40.7111L582.756 40.4038L581.373 44.7054C579.069 44.859 576.611 45.3199 574.46 45.7807L571.848 42.0937L565.241 44.5517L565.395 49.1605C563.244 50.2359 561.247 51.4649 559.403 52.8476L555.562 50.5432L550.492 55.3056L552.489 59.2999C550.953 61.1434 549.57 62.9869 548.341 64.9841L543.885 64.3696L540.966 70.6682L544.346 73.5871C543.578 75.8915 543.117 78.1959 542.656 80.5003L538.2 81.5757L538.047 88.4889L542.349 89.8716C542.502 92.1759 542.963 94.634 543.424 96.9384L539.737 99.55L542.195 106.156L546.651 105.849C547.726 107.999 548.955 109.997 550.338 111.84L548.033 115.681L552.796 120.75L556.791 118.753C558.635 120.29 560.478 121.672 562.476 122.901L561.861 127.356L568.16 130.275L571.08 126.896C573.384 127.664 575.689 128.125 577.993 128.432L579.069 132.733L585.983 133.041L587.365 128.739C589.67 128.585 592.128 128.125 594.279 127.664L596.891 131.351L603.498 128.893L603.19 124.438C605.341 123.362 607.339 122.133 609.182 120.75L613.638 122.901ZM577.379 93.5586C573.691 89.5643 573.845 83.2656 577.84 79.5786C581.834 75.8915 588.134 76.0452 591.821 80.0395C595.508 84.0337 595.355 90.3324 591.36 94.0195C587.365 97.7065 581.066 97.5529 577.379 93.5586Z" fill="#EBEBEB"/>
<path d="M427.734 330.143L411.909 319.236C410.372 313.398 408.221 307.867 405.456 302.644L409.451 286.667L386.405 261.933L370.119 264.852C365.049 261.779 359.671 259.321 353.987 257.324L344.154 240.733L310.353 239.504L299.444 255.327C293.606 256.863 288.075 259.014 282.851 261.779L266.873 257.785L242.137 280.829L245.056 296.96C241.983 302.03 239.525 307.407 237.527 313.091L220.934 322.923L219.705 356.721L235.684 367.628C237.22 373.466 239.371 378.997 241.983 384.22L237.988 400.197L261.034 424.931L277.166 422.012C282.237 425.084 287.614 427.542 293.299 429.54L303.132 446.131L336.932 447.36L347.841 431.537C353.679 430 359.21 427.85 364.588 425.084L380.413 429.079L405.149 406.035L402.23 389.904C405.302 384.834 407.761 379.457 409.758 373.773L426.351 363.941L427.734 330.143ZM322.644 381.455C301.595 380.686 285.309 363.173 285.924 342.28C286.692 321.233 304.207 304.949 325.102 305.563C346.151 306.331 362.437 323.845 361.822 344.738C361.208 365.785 343.539 382.223 322.644 381.455Z" fill="#EBEBEB"/>
<path d="M463.994 234.28C463.994 234.28 463.84 234.28 463.994 234.28L437.261 233.359C436.185 233.359 435.11 232.744 434.649 231.822L427.428 219.686C423.587 218.303 419.899 216.613 416.212 214.463L404.689 216.613C403.613 216.767 402.538 216.46 401.77 215.692L383.64 196.181C382.872 195.413 382.565 194.184 382.872 193.108L385.791 181.74C384.101 178.207 382.565 174.212 381.335 170.218L369.812 162.23C368.891 161.615 368.43 160.54 368.43 159.464L369.352 132.887C369.352 131.811 369.966 130.736 370.888 130.275L383.026 123.055C384.408 119.06 386.252 115.373 388.249 111.994L386.098 100.472C385.945 99.3963 386.252 98.3209 387.02 97.5527L406.532 79.4248C407.301 78.6567 408.53 78.3494 409.605 78.6567L420.975 81.5756C424.662 79.7321 428.503 78.3494 432.344 77.1204L440.333 65.5984C440.948 64.6767 442.023 64.0622 443.099 64.2158L469.679 65.1376C470.754 65.1376 471.83 65.7521 472.29 66.6738L479.512 78.8103C483.353 80.1929 487.04 81.8828 490.574 84.0336L502.25 81.8828C503.326 81.7292 504.401 82.0365 505.169 82.8046L523.299 102.315C524.067 103.083 524.375 104.312 524.067 105.388L521.148 116.756C522.992 120.443 524.375 124.284 525.604 128.124L537.127 136.113C538.048 136.728 538.509 137.803 538.509 138.878L537.588 165.456C537.588 166.531 536.973 167.606 536.051 168.067L523.914 175.288C522.531 179.282 520.687 182.969 518.69 186.349L520.841 197.871C520.994 198.946 520.687 200.022 519.919 200.79L500.407 218.918C499.638 219.686 498.409 219.993 497.334 219.686L485.964 216.767C482.277 218.61 478.282 219.993 474.441 221.222L466.452 232.744C465.991 233.819 465.069 234.28 463.994 234.28ZM439.258 227.06L462.304 227.828L469.986 216.767C470.447 216.152 471.061 215.692 471.83 215.538C476.131 214.463 480.28 212.773 484.428 210.775C485.043 210.468 485.964 210.315 486.733 210.468L497.487 213.234L514.388 197.564L512.391 186.503C512.237 185.734 512.391 184.966 512.851 184.198C515.002 180.511 517 176.517 518.536 172.215C518.843 171.447 519.304 170.833 519.919 170.372L531.442 163.459L532.21 140.415L521.148 132.733C520.534 132.272 520.073 131.811 519.919 131.043C519.919 130.89 519.919 130.89 519.919 130.736C518.69 126.435 517.153 122.287 515.156 118.292C514.849 117.524 514.695 116.756 514.849 115.988L517.614 105.08L501.789 88.1815L490.727 90.1787C489.959 90.3323 489.191 90.1787 488.423 89.7178C484.582 87.4134 480.587 85.5699 476.439 84.0336C476.131 83.88 475.978 83.88 475.824 83.7264C475.363 83.4191 475.056 83.1119 474.749 82.651L467.835 71.129L444.789 70.3608L437.107 81.422C436.646 82.0365 436.031 82.4973 435.263 82.8046C430.961 84.0336 426.813 85.5699 422.818 87.567C422.05 87.8743 421.282 88.0279 420.514 87.8743L409.605 85.109L392.705 100.933L394.702 111.994C394.856 112.762 394.702 113.376 394.395 113.991C394.395 114.144 394.241 114.144 394.241 114.298C391.937 117.985 390.093 122.133 388.557 126.435C388.249 127.203 387.788 127.817 387.174 128.124L375.651 135.038L374.883 158.082L385.945 165.763C386.559 166.224 387.02 166.838 387.174 167.606C388.403 172.062 389.939 176.21 391.937 180.05C392.09 180.204 392.09 180.511 392.244 180.818C392.398 181.279 392.398 181.894 392.244 182.355L389.478 193.262L405.303 210.161L416.212 208.164C416.98 208.01 417.748 208.164 418.516 208.625C422.357 210.929 426.506 212.773 430.654 214.309C431.422 214.616 432.037 215.077 432.498 215.692L439.258 227.06ZM453.546 197.871C452.932 197.871 452.471 197.871 451.856 197.871C425.123 196.949 403.921 174.366 404.842 147.635C405.764 120.904 428.349 99.8571 455.083 100.625C481.816 101.547 503.018 124.13 502.097 150.861C501.636 163.766 496.105 175.902 486.733 184.659C477.514 193.262 465.838 197.871 453.546 197.871ZM453.393 107.078C430.808 107.078 412.064 125.052 411.295 147.789C410.527 170.986 428.81 190.497 452.01 191.419C463.226 191.726 473.98 187.732 482.277 180.05C490.574 172.369 495.183 161.922 495.644 150.708C496.412 127.51 478.129 107.999 454.929 107.078C454.468 107.078 453.854 107.078 453.393 107.078Z" fill="#EBEBEB"/>
<path d="M525.296 42.8619L514.234 39.943L511.314 28.8819L515.616 24.5803L520.072 33.9515L529.598 38.5603L525.296 42.8619Z" fill="#E0E0E0"/>
<path d="M525.911 35.4877C527.908 33.4906 527.908 30.2644 525.911 28.2673C523.913 26.2701 520.687 26.2701 518.689 28.2673L524.221 19.9714L531.595 23.6585L533.132 31.3398L525.911 35.4877Z" fill="#E0E0E0"/>
<path d="M514.693 25.5021L522.836 17.3599L533.898 20.2788L536.818 31.3399L528.675 39.4821L517.613 36.5632L514.693 25.5021ZM529.443 32.108C531.44 30.1109 531.44 26.8847 529.443 24.8876C527.446 22.8904 524.219 22.8904 522.222 24.8876C520.224 26.8847 520.224 30.1109 522.222 32.108C524.065 34.1052 527.446 34.1052 529.443 32.108Z" fill="#F0F0F0"/>
<path d="M74.8215 336.903L80.6599 335.367L82.1963 329.375L79.8916 327.071L77.4334 332.14L72.3633 334.598L74.8215 336.903Z" fill="#E0E0E0"/>
<path d="M74.3599 332.909C73.2844 331.833 73.2844 330.143 74.3599 329.068C75.4354 327.993 77.1254 327.993 78.2009 329.068L75.2817 324.613L71.2871 326.61L70.3652 330.758L74.3599 332.909Z" fill="#E0E0E0"/>
<path d="M80.3524 327.532L76.0505 323.23L70.2122 324.766L68.6758 330.604L72.9777 334.906L78.816 333.37L80.3524 327.532ZM72.5168 331.065C71.4413 329.99 71.4413 328.3 72.5168 327.224C73.5923 326.149 75.2823 326.149 76.3578 327.224C77.4333 328.3 77.4333 329.99 76.3578 331.065C75.4359 332.14 73.5923 332.14 72.5168 331.065Z" fill="#F0F0F0"/>
<path d="M53.4668 12.7509L58.3832 17.6669C59.6124 18.896 61.7633 18.896 62.9925 17.6669C64.2216 16.4379 64.2216 14.2872 62.9925 13.0581L58.076 8.1421C56.8468 6.91308 54.6959 6.91308 53.4668 8.1421C52.2376 9.37111 52.2376 11.3683 53.4668 12.7509Z" fill="#F0F0F0"/>
<path d="M49.9326 0.460827C53.7736 -0.921811 57.7683 0.921706 59.151 4.45512C60.3801 7.98852 58.3828 11.9828 54.5418 13.3655C50.7008 14.7481 46.7062 12.9046 45.3234 9.37116C44.2479 5.83775 46.2452 1.84347 49.9326 0.460827Z" fill="#E0E0E0"/>
<path d="M44.5757 8.43868L45.3027 10.4628L59.9064 5.21827L59.1794 3.19418L44.5757 8.43868Z" fill="#F0F0F0"/>
<path d="M320.186 537.846C484.716 537.846 618.094 530.074 618.094 520.487C618.094 510.899 484.716 503.127 320.186 503.127C155.655 503.127 22.2773 510.899 22.2773 520.487C22.2773 530.074 155.655 537.846 320.186 537.846Z" fill="#F5F5F5"/>
<path d="M133.821 144.716C133.667 144.716 133.667 144.716 133.513 144.716C126.6 142.104 122.451 139.493 120.3 136.267C118.764 136.574 116.92 136.42 115.384 135.652C113.847 134.884 112.157 133.501 111.082 131.658C110.006 132.426 108.777 132.733 107.394 132.272C105.858 131.811 104.168 130.429 102.785 128.585C101.863 129.2 101.095 129.353 100.327 129.2C95.7179 128.893 89.5722 119.675 89.1113 109.996C89.1113 109.536 89.4186 109.228 89.8795 109.228C90.3404 109.228 90.6477 109.536 90.6477 109.996C91.1086 119.214 96.947 127.356 100.481 127.664C101.095 127.664 101.556 127.51 101.863 127.203C99.7125 123.516 98.637 118.292 100.327 112.762C101.71 108.153 102.785 106.309 104.168 106.617C106.78 107.231 106.473 117.371 105.09 123.976C104.783 125.513 104.322 126.588 103.861 127.356C105.09 129.2 106.473 130.275 107.702 130.736C108.777 131.043 109.699 130.736 110.314 130.275C109.085 127.356 108.931 123.208 110.467 118.139C112.618 111.379 113.54 111.225 114.001 111.072C114.308 110.918 114.769 111.072 114.923 111.379C116.306 112.915 114.616 123.516 112.926 128.739C112.618 129.353 112.465 129.968 112.004 130.582C112.926 132.426 114.308 133.655 115.845 134.423C117.074 135.038 118.303 135.191 119.378 135.038C119.225 134.73 119.071 134.423 119.071 134.116C117.842 130.89 118.457 127.049 120.915 122.44C122.605 119.368 123.834 117.985 125.063 117.985C125.37 117.985 126.139 118.139 126.6 119.06C127.982 121.518 126.907 129.661 124.295 133.809C123.68 134.73 122.759 135.498 121.837 135.959C123.834 138.725 127.829 141.029 133.974 143.487C134.435 143.641 134.589 144.102 134.435 144.409C134.435 144.562 134.128 144.716 133.821 144.716ZM125.217 119.368C125.217 119.368 124.295 119.368 122.451 122.901C120.3 127.049 119.686 130.429 120.761 133.348C120.915 133.655 121.068 134.116 121.222 134.423C121.99 134.116 122.758 133.501 123.219 132.733C125.37 129.507 126.446 122.747 125.524 119.982C125.37 119.521 125.217 119.368 125.217 119.368ZM114.155 112.915C113.694 113.683 113.079 115.22 112.004 118.292C110.621 122.44 110.621 125.82 111.389 128.278C111.389 128.124 111.543 127.971 111.543 127.817C113.386 122.747 114.308 115.373 114.155 112.915ZM104.014 107.999C103.707 108.307 102.939 109.228 101.863 112.915C100.481 117.831 101.249 122.287 102.939 125.513C103.246 124.898 103.553 124.13 103.707 123.362C105.397 115.988 104.936 109.228 104.014 107.999Z" fill="#374151"/>
<path d="M192.203 225.216C189.898 225.216 187.44 224.755 185.135 223.373C184.828 223.219 184.674 222.758 184.828 222.297C184.981 221.99 185.442 221.837 185.903 221.99C191.434 225.216 198.502 222.912 199.885 220.608C200.038 220.3 200.192 219.993 200.038 219.532C197.887 219.686 195.275 219.225 192.203 217.228C188.362 214.77 188.054 214.002 188.054 213.541C188.054 213.233 188.208 212.926 188.515 212.773C190.052 212.004 196.965 215.231 199.885 217.074C200.192 217.381 200.653 217.535 200.806 217.842C202.036 217.535 203.111 216.92 203.726 216.152C204.187 215.538 204.494 215.077 204.647 214.462C204.494 214.462 204.494 214.462 204.34 214.462C201.882 214.77 199.424 213.694 196.812 211.236C194.968 209.546 194.354 208.471 194.507 207.549C194.507 207.242 194.814 206.781 195.583 206.474C197.734 206.013 202.957 208.164 205.108 210.468C205.569 210.929 205.877 211.544 206.03 212.312C208.028 211.39 210.178 209.239 212.637 205.706C212.944 205.398 213.405 205.245 213.712 205.552C214.019 205.859 214.173 206.32 213.866 206.628C210.947 210.622 208.488 212.926 206.184 213.848C206.03 214.923 205.569 215.999 204.801 216.92C204.033 217.842 202.957 218.61 201.421 219.071C201.575 219.839 201.421 220.454 200.96 221.222C200.038 223.526 196.351 225.216 192.203 225.216ZM190.82 214.616C191.281 214.923 192.049 215.538 193.124 216.152C195.275 217.381 197.119 217.996 198.655 218.149C196.197 216.613 192.817 215.077 190.82 214.616ZM196.197 208.01C196.351 208.317 196.658 208.932 198.041 210.161C200.345 212.312 202.343 213.233 204.34 212.926C204.494 212.926 204.647 212.926 204.801 212.926C204.647 212.465 204.494 212.004 204.186 211.697C202.036 209.239 197.273 207.703 196.197 208.01Z" fill="#374151"/>
<path d="M212.637 223.066L188.669 227.367L167.006 108.767L120.76 117.217L45.4766 250.872L53.6195 294.963L150.105 277.449L156.712 313.552L202.958 305.102L196.351 269L220.319 264.698L212.637 223.066ZM91.4149 245.034L131.361 174.98L142.423 235.663L91.4149 245.034Z" fill="#407BFF"/>
<path d="M405.456 100.779C404.535 92.6367 402.998 85.2626 400.54 78.964C398.235 72.6653 394.548 66.3666 389.785 60.2215C385.022 54.0765 378.569 48.8532 370.273 44.2444C361.976 39.7892 351.221 36.563 337.701 34.8731C309.585 31.1861 287.614 36.2558 271.943 49.7749C256.272 63.4477 245.824 89.5642 240.908 128.124C238.91 143.794 238.45 158.389 239.371 171.601C240.447 184.966 242.905 195.72 246.746 203.709C252.124 215.077 259.498 224.141 269.178 231.054C278.857 237.814 292.224 242.423 308.97 244.573C339.084 248.568 361.362 242.73 375.957 227.214C390.4 211.697 400.079 185.581 404.842 148.71C406.993 132.426 407.146 116.449 405.456 100.779Z" fill="#407BFF"/>
<path d="M322.951 228.903C319.264 228.75 315.269 228.443 311.275 227.982C297.14 226.138 286.385 222.605 278.857 217.381C271.482 212.312 266.104 205.552 261.956 196.796V196.642C259.037 190.497 257.04 181.587 256.271 170.525C255.35 158.389 255.811 144.87 257.654 130.429C263.185 87.8743 274.401 70.0536 283.005 62.6796C292.991 54.0765 306.358 50.0822 324.027 50.6967C327.714 50.8503 331.555 51.1576 335.396 51.6185C346.766 53.1547 355.677 55.6128 362.13 59.1462C368.275 62.5259 373.038 66.3666 376.418 70.6682C380.105 75.4306 382.871 80.193 384.715 84.9554C386.558 90.0251 387.941 96.0165 388.709 102.776C390.399 117.063 390.246 131.965 388.248 146.867C383.946 179.897 375.803 203.248 363.82 215.999C354.755 225.216 341.542 229.518 322.951 228.903Z" fill="#374151"/>
<path d="M353.064 101.24L353.218 95.402L349.684 94.173C349.53 92.1758 349.223 90.1787 348.762 88.3352L351.835 86.0308L349.838 80.5002L346.15 80.8075C345.229 78.9639 344.153 77.4277 343.078 75.7378L345.075 72.5116L341.08 68.2101L337.7 69.9C336.164 68.671 334.627 67.442 332.937 66.3666L333.552 62.6795L328.175 60.2215L325.716 63.1404C323.873 62.5259 321.875 62.065 319.878 61.7578L318.956 58.0707L313.118 57.9171L311.889 61.4505C309.891 61.6041 307.894 61.9114 306.05 62.3723L303.746 59.2997L298.215 61.2969L298.522 64.9839C296.678 65.9057 295.142 66.9811 293.452 68.0565L290.225 66.0593L285.923 70.0536L287.613 73.4334C286.384 74.9697 285.155 76.5059 284.233 78.1958L280.546 77.5813L278.088 82.9582L281.007 85.4163C280.392 87.2598 279.931 89.2569 279.624 91.2541L275.937 92.1758L275.783 98.0136L279.317 99.2426C279.471 101.24 279.778 103.237 280.239 105.08L277.166 107.385L279.163 112.915L282.851 112.608C283.773 114.452 284.848 115.988 285.923 117.678L283.926 120.904L287.921 125.206L291.301 123.516C292.837 124.745 294.374 125.974 296.064 127.049L295.449 130.736L300.827 133.194L303.285 130.275C305.128 130.89 307.126 131.351 309.123 131.658L310.045 135.345L315.883 135.498L317.112 131.965C319.11 131.811 321.107 131.504 322.951 131.043L325.255 134.116L330.786 132.119L330.479 128.432C332.323 127.51 333.859 126.435 335.549 125.359L338.776 127.356L343.078 123.362L341.388 119.982C342.617 118.446 343.846 116.91 344.768 115.22L348.455 115.834L350.913 110.457L347.994 107.999C348.609 106.156 349.07 104.159 349.377 102.162L353.064 101.24ZM313.732 119.982C300.98 119.521 290.994 108.921 291.454 96.1701C291.915 83.4191 302.517 73.4334 315.269 73.8943C328.021 74.3551 338.007 84.9554 337.547 97.7064C337.086 110.457 326.484 120.443 313.732 119.982Z" fill="#407BFF"/>
<path opacity="0.3" d="M377.339 208.164L377.8 204.169L375.496 203.248C375.496 201.865 375.342 200.636 375.188 199.253L377.339 197.871L376.264 194.03H373.652C373.191 192.801 372.576 191.572 371.808 190.497L373.191 188.346L370.733 185.273L368.428 186.195C367.506 185.273 366.431 184.352 365.355 183.583L365.97 181.125L362.436 179.282L360.592 181.125C359.363 180.665 358.134 180.204 356.751 179.896L356.291 177.438L352.296 176.978L351.374 179.282C349.991 179.282 348.762 179.436 347.379 179.589L345.997 177.438L342.156 178.514V181.125C340.926 181.586 339.697 182.201 338.622 182.969L336.471 181.433L333.398 183.891L334.32 186.195C333.398 187.117 332.476 188.192 331.708 189.268L329.25 188.653L327.406 192.187L329.25 194.03C328.789 195.259 328.328 196.488 328.021 197.871L325.562 198.332L325.102 202.326L327.406 203.248C327.406 204.63 327.56 205.859 327.713 207.242L325.562 208.625L326.638 212.465H329.25C329.711 213.694 330.325 214.923 331.094 215.999L329.557 218.149L332.015 221.222L334.32 220.3C335.242 221.222 336.317 222.144 337.393 222.912L336.778 225.37L340.312 227.213L342.156 225.37C343.385 225.831 344.614 226.292 345.997 226.599L346.458 229.057L350.452 229.518L351.374 227.213C352.757 227.213 353.986 227.06 355.369 226.906L356.751 229.057L360.592 227.982V225.37C361.822 224.909 363.051 224.295 364.126 223.526L366.123 225.063L369.196 222.605L368.274 220.3C369.196 219.378 370.118 218.303 370.886 217.228L373.345 217.842L375.188 214.309L373.345 212.465C373.806 211.236 374.266 210.007 374.574 208.625L377.339 208.164ZM357.52 206.627C355.676 210.007 351.528 211.236 348.148 209.393C344.768 207.549 343.692 203.401 345.382 200.022C347.226 196.642 351.374 195.566 354.754 197.256C358.134 199.1 359.363 203.248 357.52 206.627Z" fill="#407BFF"/>
<path d="M399.005 141.644L394.396 138.417C393.935 136.727 393.32 135.191 392.552 133.655L393.781 129.046L387.175 121.979L382.565 122.901C381.183 121.979 379.493 121.365 377.956 120.75L375.037 115.988L365.358 115.681L362.131 120.289C360.441 120.75 358.905 121.365 357.368 122.133L352.759 120.904L345.692 127.51L346.614 132.119C345.692 133.655 345.077 135.191 344.463 136.727L339.7 139.493L339.393 149.171L344.002 152.397C344.463 154.087 345.077 155.624 345.845 157.16L344.616 161.769L351.223 168.835L355.832 167.914C357.368 168.835 358.905 169.45 360.441 170.064L363.207 174.827L372.886 175.134L376.113 170.525C377.803 170.064 379.339 169.45 380.875 168.682L385.485 169.911L392.552 163.305L391.63 158.696C392.552 157.16 393.167 155.624 393.781 154.087L398.544 151.168L399.005 141.644ZM368.738 156.545C362.746 156.392 357.983 151.322 358.137 145.177C358.29 139.186 363.36 134.423 369.506 134.577C375.498 134.73 380.261 139.8 380.107 145.945C379.8 151.937 374.73 156.699 368.738 156.545Z" fill="white"/>
<path d="M432.497 64.0622L433.265 62.0651C433.88 61.7578 434.34 61.4506 434.801 60.9897H436.645L438.796 57.9172L438.181 56.2273C438.335 55.6128 438.489 54.9983 438.642 54.3838L440.179 53.0011L439.564 49.4677L437.567 48.6996C437.26 48.0851 436.952 47.6242 436.491 47.1633V45.3198L433.419 43.169L431.729 43.7835C431.114 43.6299 430.499 43.4763 429.885 43.3226L428.502 41.7864L424.968 42.4009L424.2 44.398C423.586 44.7053 423.125 45.0125 422.51 45.4734H420.667L418.516 48.5459L419.13 50.2358C418.976 50.8503 418.823 51.4648 418.669 52.0794L417.133 53.462L417.747 56.9954L419.745 57.7635C420.052 58.378 420.359 58.8389 420.82 59.4534V61.2969L423.893 63.4477L425.583 62.8332C426.198 62.9868 426.812 63.1405 427.427 63.2941L428.809 64.8304L432.497 64.0622ZM424.661 54.0765C424.2 51.7721 425.737 49.775 428.041 49.3141C430.346 48.8532 432.343 50.3895 432.804 52.6939C433.265 54.9983 431.729 56.9954 429.424 57.4563C427.119 57.9172 424.968 56.3809 424.661 54.0765Z" fill="#407BFF"/>
<path d="M390.247 53.9229L389.018 53.0011C391.015 50.5431 393.934 47.4706 398.236 45.3198L399.004 46.7025C394.549 49.0069 391.629 52.3866 390.247 53.9229Z" fill="#407BFF"/>
<path d="M402.536 45.1661L401.922 43.7835C407.76 41.3254 413.752 40.25 419.898 40.8646L419.744 42.4008C413.906 41.7863 408.221 42.7081 402.536 45.1661Z" fill="#407BFF"/>
<path d="M399.618 55.7663L398.389 54.8445C401.615 50.2358 407.761 46.2415 413.599 45.0125L413.906 46.5487C408.529 47.6241 402.691 51.4648 399.618 55.7663Z" fill="#407BFF"/>
<path d="M297.753 203.555C297.6 203.555 297.292 203.401 297.139 203.248L293.912 199.868C292.222 199.714 290.686 199.407 289.15 198.946L284.079 201.097C283.772 201.251 283.618 201.251 283.311 201.097L274.861 195.566C274.707 195.413 274.554 195.106 274.554 194.952L274.707 189.421C273.632 188.192 272.71 186.81 271.942 185.273L267.64 183.584C267.333 183.43 267.179 183.276 267.179 182.969L265.182 173.137C265.182 172.83 265.182 172.676 265.335 172.369L268.715 169.143C268.869 167.453 269.176 165.917 269.637 164.38L267.486 159.311C267.333 159.003 267.333 158.85 267.486 158.542L273.017 150.093C273.171 149.939 273.325 149.786 273.632 149.786L279.163 149.939C280.392 148.864 281.775 147.942 283.311 147.174L285.001 142.873C285.155 142.565 285.308 142.412 285.616 142.412L295.449 140.415C295.756 140.415 295.91 140.415 296.217 140.568L299.443 143.948C301.133 144.102 302.67 144.409 304.36 144.87L309.43 142.719C309.737 142.565 309.891 142.565 310.198 142.719L318.648 148.25C318.802 148.403 318.956 148.71 318.956 148.864L318.802 154.395C319.878 155.624 320.799 157.006 321.568 158.542L325.87 160.232C326.177 160.386 326.33 160.54 326.33 160.847L328.328 170.679C328.328 170.986 328.328 171.14 328.174 171.447L324.794 174.673C324.64 176.363 324.333 177.899 323.872 179.436L326.023 184.505C326.177 184.813 326.177 184.966 326.023 185.273L320.492 193.723C320.338 193.877 320.185 194.03 319.878 194.03L314.347 193.877C313.117 194.952 311.735 195.874 310.198 196.642L308.508 200.943C308.355 201.251 308.201 201.404 307.894 201.404L297.753 203.555ZM288.996 197.564H289.15C290.84 198.025 292.53 198.332 294.22 198.485C294.373 198.485 294.527 198.639 294.681 198.793L297.753 202.019L306.818 200.175L308.508 196.027C308.508 195.874 308.662 195.72 308.815 195.566C310.352 194.798 311.888 193.877 313.117 192.648C313.271 192.494 313.425 192.494 313.578 192.494L318.956 192.648L324.026 184.966L321.875 180.05C321.875 179.897 321.721 179.743 321.875 179.589C322.336 177.899 322.643 176.21 322.797 174.52C322.797 174.366 322.95 174.212 322.95 174.059L326.177 170.986L324.333 161.922L320.185 160.232C320.031 160.232 319.878 160.079 319.724 159.925C318.956 158.389 318.034 157.006 316.805 155.624C316.651 155.47 316.651 155.316 316.651 155.163L316.805 149.786L309.123 144.716L304.206 146.867C304.053 146.867 303.899 147.02 303.745 146.867C302.055 146.406 300.365 146.099 298.675 145.945C298.522 145.945 298.368 145.791 298.214 145.791L295.141 142.565L286.077 144.409L284.387 148.557C284.387 148.71 284.233 148.864 284.079 149.018C282.543 149.786 281.16 150.708 279.777 151.937C279.624 152.09 279.47 152.09 279.317 152.09L273.939 151.937L268.869 159.618L271.02 164.534C271.174 164.688 271.174 164.995 271.02 165.148C270.559 166.685 270.252 168.375 270.098 170.064C270.098 170.218 269.944 170.372 269.944 170.525L266.718 173.598L268.562 182.662L272.71 184.352C272.864 184.352 273.017 184.505 273.171 184.813C273.939 186.349 274.861 187.732 275.936 189.114C276.09 189.268 276.09 189.421 276.09 189.575L275.936 194.952L283.618 200.022L288.535 197.871C288.842 197.564 288.996 197.564 288.996 197.564ZM296.678 192.648C292.837 192.648 288.842 191.572 285.462 189.268C280.853 186.195 277.78 181.586 276.705 176.21C275.629 170.833 276.705 165.456 279.624 160.847C285.923 151.476 298.675 148.864 308.047 155.009C317.419 161.308 320.031 173.905 313.732 183.43C309.737 189.421 303.284 192.648 296.678 192.648ZM280.853 161.769C278.087 165.917 277.012 170.986 278.087 176.056C279.163 180.972 281.928 185.273 286.23 188.039C294.988 193.877 306.664 191.419 312.503 182.662C318.341 173.905 315.883 162.23 307.125 156.392C298.368 150.554 286.691 153.012 280.853 161.769Z" fill="white"/>
<path d="M590.438 236.892L566.316 233.666L582.295 114.144L535.742 107.846L422.816 211.697L416.824 256.095L514.078 269.154L509.162 305.563L555.715 311.862L560.631 275.452L584.753 278.678L590.438 236.892ZM468.294 220.454L527.906 166.224L519.763 227.367L468.294 220.454Z" fill="#407BFF"/>
<path d="M541.735 310.786C541.581 310.786 541.581 310.786 541.735 310.786C541.12 310.633 540.967 310.325 540.967 309.864L576.765 113.376C576.765 112.915 577.226 112.762 577.687 112.762C578.148 112.762 578.455 113.223 578.301 113.683L542.503 310.172C542.35 310.633 542.042 310.786 541.735 310.786Z" fill="#374151"/>
<path d="M573.538 116.756C573.538 117.524 572.924 117.985 572.309 117.985C571.541 117.985 571.08 117.371 571.08 116.756C571.08 115.988 571.695 115.527 572.309 115.527C572.924 115.373 573.538 115.988 573.538 116.756Z" fill="#374151"/>
<path d="M568.314 143.333C568.314 144.102 567.699 144.562 567.085 144.562C566.316 144.562 565.855 143.948 565.855 143.333C565.855 142.719 566.47 142.104 567.085 142.104C567.853 141.951 568.314 142.565 568.314 143.333Z" fill="#374151"/>
<path d="M563.242 169.911C563.242 170.679 562.627 171.14 562.012 171.14C561.244 171.14 560.783 170.525 560.783 169.911C560.783 169.296 561.398 168.682 562.012 168.682C562.781 168.528 563.242 169.143 563.242 169.911Z" fill="#374151"/>
<path d="M553.103 197.564C553.103 198.332 552.488 198.793 551.874 198.793C551.259 198.793 550.645 198.178 550.645 197.564C550.645 196.949 551.259 196.335 551.874 196.335C552.488 196.335 553.256 196.795 553.103 197.564Z" fill="#374151"/>
<path d="M552.95 223.066C552.95 223.834 552.336 224.295 551.721 224.295C551.107 224.295 550.492 223.68 550.492 223.066C550.492 222.451 551.107 221.837 551.721 221.837C552.336 221.837 553.104 222.297 552.95 223.066Z" fill="#374151"/>
<path d="M547.878 249.643C547.878 250.411 547.264 250.872 546.649 250.872C545.881 250.872 545.42 250.257 545.42 249.643C545.42 248.875 546.034 248.414 546.649 248.414C547.264 248.414 547.878 248.875 547.878 249.643Z" fill="#374151"/>
<path d="M542.81 276.22C542.81 276.988 542.195 277.449 541.581 277.449C540.966 277.449 540.352 276.835 540.352 276.22C540.352 275.606 540.966 274.991 541.581 274.991C542.195 274.838 542.81 275.452 542.81 276.22Z" fill="#374151"/>
<path d="M537.585 302.798C537.585 303.566 536.971 304.027 536.356 304.027C535.588 304.027 535.127 303.412 535.127 302.798C535.127 302.029 535.742 301.569 536.356 301.569C537.124 301.415 537.739 302.029 537.585 302.798Z" fill="#374151"/>
<path d="M551.873 198.178C551.565 198.178 551.258 197.871 551.104 197.563C550.951 197.103 551.258 196.795 551.719 196.642L555.56 195.874C556.021 195.72 556.328 196.027 556.482 196.488C556.636 196.949 556.328 197.256 555.867 197.41L552.026 198.178C552.026 198.178 552.026 198.178 551.873 198.178Z" fill="#374151"/>
<path d="M564.627 184.044C564.627 184.044 561.247 192.955 560.018 198.485C558.789 203.862 558.789 215.999 558.789 215.999" fill="#374151"/>
<path d="M558.788 216.767C558.327 216.767 558.02 216.46 558.02 215.999C558.02 215.538 558.173 203.709 559.249 198.332C560.478 192.955 563.704 184.198 563.858 183.891C564.012 183.43 564.472 183.276 564.78 183.43C565.241 183.584 565.394 184.044 565.241 184.352C565.241 184.505 561.861 193.262 560.631 198.639C559.556 203.862 559.402 215.845 559.402 215.999C559.556 216.46 559.249 216.767 558.788 216.767Z" fill="#374151"/>
<path d="M277.934 349.347C280.085 314.934 276.09 252.408 340.772 260.704C410.064 269.614 390.244 350.729 390.244 350.729L277.934 349.347Z" fill="#374151"/>
<path d="M322.49 328.761C338.103 328.761 350.76 316.105 350.76 300.493C350.76 284.882 338.103 272.226 322.49 272.226C306.878 272.226 294.221 284.882 294.221 300.493C294.221 316.105 306.878 328.761 322.49 328.761Z" fill="white"/>
<path d="M326.331 272.226C312.964 269.922 298.676 279.754 297.293 289.74L350.299 294.656C348.302 283.287 336.932 274.07 326.331 272.226Z" fill="#374151"/>
<path d="M344.154 299.725C343.846 307.099 339.698 312.937 335.242 312.63C330.633 312.323 327.253 306.177 327.56 298.803C327.868 291.429 332.016 285.592 336.472 285.899C341.081 286.206 344.614 292.351 344.154 299.725Z" fill="#374151"/>
<path d="M322.49 330.297C306.05 330.297 292.684 316.931 292.684 300.493C292.684 284.055 306.05 270.69 322.49 270.69C338.929 270.69 352.296 284.055 352.296 300.493C352.296 316.931 338.929 330.297 322.49 330.297ZM322.49 273.762C307.74 273.762 295.756 285.745 295.756 300.493C295.756 315.242 307.74 327.224 322.49 327.224C337.239 327.224 349.223 315.242 349.223 300.493C349.223 285.745 337.239 273.762 322.49 273.762Z" fill="#407BFF"/>
<path opacity="0.3" d="M382.411 348.578H382.257C381.796 348.425 381.643 348.118 381.643 347.657C381.643 347.503 386.559 326.61 381.489 305.563C381.336 305.102 381.643 304.795 382.104 304.641C382.565 304.488 382.872 304.795 383.026 305.256C388.25 326.763 383.179 347.81 383.179 348.118C383.026 348.271 382.718 348.578 382.411 348.578Z" fill="white"/>
<path opacity="0.3" d="M378.108 294.041C377.801 294.041 377.493 293.887 377.34 293.58C375.342 289.279 372.884 285.284 370.119 281.751C369.811 281.444 369.965 280.983 370.272 280.676C370.58 280.368 371.041 280.522 371.348 280.829C374.267 284.363 376.879 288.511 378.876 292.966C379.03 293.427 378.876 293.734 378.569 294.041C378.415 293.887 378.262 294.041 378.108 294.041Z" fill="white"/>
<path d="M133.975 510.808C133.821 510.808 133.668 510.808 133.36 510.808C129.058 510.654 125.832 507.121 125.832 502.973C125.986 498.672 129.366 495.445 133.668 495.445H133.821C138.277 495.445 148.878 490.069 171.309 454.888C172.539 453.045 174.536 451.662 176.687 451.355C178.838 451.047 181.142 451.662 182.833 453.198C210.334 477.164 239.679 492.219 239.833 492.373C243.674 494.37 245.057 498.979 243.213 502.666C241.216 506.507 236.607 507.889 232.919 506.046C231.69 505.431 206.186 492.373 179.452 470.558C160.862 498.672 146.881 510.808 133.975 510.808Z" fill="#374151"/>
<path d="M181.45 451.816C181.296 451.816 180.989 451.816 180.835 451.816C178.377 451.508 176.533 449.05 176.994 446.592C178.07 438.911 176.687 410.336 167.008 388.061C166.086 386.063 166.854 383.605 168.698 382.376C189.747 368.089 234.609 366.246 236.453 366.246C238.911 366.246 241.062 368.089 241.216 370.701C241.37 373.312 239.372 375.31 236.76 375.463C236.3 375.463 197.121 376.999 176.994 388.061C185.598 410.183 187.442 437.836 186.059 447.821C185.752 450.126 183.755 451.816 181.45 451.816Z" fill="#374151"/>
<path d="M189.132 445.824C186.059 438.604 172.231 439.372 164.089 445.67C159.787 449.05 153.948 458.882 153.334 462.569C152.719 466.256 155.177 469.482 159.479 469.022C164.703 468.561 172.078 460.879 172.078 460.879C167.315 465.642 173.461 469.022 182.833 462.108C188.056 458.268 192.666 453.966 189.132 445.824Z" fill="#407BFF"/>
<path d="M453.393 351.497H453.239C452.778 351.344 452.625 350.883 452.778 350.576C454.776 343.509 457.08 339.054 459.999 336.596C459.538 335.059 459.538 333.369 460.307 331.526C460.921 329.836 462.15 328.146 463.994 326.917C463.072 325.995 462.765 324.766 463.072 323.23C463.379 321.694 464.609 319.85 466.299 318.314C465.53 317.546 465.377 316.624 465.377 316.01C465.377 311.401 473.827 304.488 483.506 303.105C483.967 302.951 484.275 303.412 484.428 303.719C484.428 304.18 484.121 304.488 483.814 304.641C474.749 305.87 467.067 312.476 467.067 316.01C467.067 316.624 467.22 317.085 467.681 317.392C471.215 314.934 476.285 313.398 481.97 314.473C486.733 315.395 488.576 316.317 488.423 317.853C487.962 320.618 477.975 321.079 471.215 320.311C469.679 320.158 468.603 319.697 467.681 319.389C465.991 320.772 464.916 322.308 464.609 323.537C464.301 324.613 464.762 325.534 465.377 325.995C468.296 324.459 472.291 323.845 477.514 325.074C484.428 326.61 484.735 327.532 484.889 327.992C485.043 328.3 484.889 328.761 484.582 329.068C483.045 330.604 472.444 329.836 467.067 328.607C466.299 328.453 465.684 328.146 465.223 327.839C463.379 328.914 462.304 330.451 461.689 331.987C461.229 333.216 461.075 334.445 461.382 335.52C461.689 335.367 461.997 335.213 462.304 335.059C465.53 333.523 469.371 333.83 474.134 335.827C477.207 337.21 478.744 338.439 478.897 339.514C478.897 339.822 478.897 340.59 477.975 341.051C475.671 342.587 467.374 342.433 463.226 340.129C462.15 339.668 461.382 338.746 460.921 337.825C458.463 340.129 456.312 344.277 454.468 350.729C454.161 351.19 453.854 351.497 453.393 351.497ZM461.843 337.056C462.304 337.825 462.919 338.439 463.687 338.9C467.22 340.743 473.981 341.204 476.593 340.129C477.053 339.975 477.207 339.668 477.207 339.668C477.207 339.668 477.053 338.746 473.366 337.21C469.064 335.367 465.684 335.059 462.919 336.442C462.458 336.749 462.15 336.903 461.843 337.056ZM466.913 327.071C467.067 327.071 467.221 327.071 467.374 327.224C472.752 328.607 480.126 328.761 482.585 328.3C481.816 327.992 480.28 327.378 477.053 326.763C472.752 325.688 469.371 325.995 466.913 327.071ZM468.911 318.314C469.679 318.621 470.447 318.775 471.062 318.775C478.744 319.697 485.504 318.621 486.426 317.7C486.118 317.392 485.196 316.778 481.355 316.01C476.285 315.088 471.983 316.47 468.911 318.314Z" fill="#374151"/>
<path d="M253.506 508.196C254.582 507.889 254.121 506.967 253.045 506.967H232.304C192.665 502.819 165.009 508.35 182.524 509.733C200.039 511.115 181.295 510.808 168.543 515.57C155.791 520.333 263.339 521.562 273.018 515.57C281.929 510.04 239.371 512.805 253.506 508.196Z" fill="#374151"/>
<path d="M402.384 514.341L221.396 508.35L213.867 332.909L427.581 337.671L402.384 514.341Z" fill="#407BFF"/>
<path d="M277.935 510.962C277.474 510.962 277.167 510.654 277.167 510.194L262.725 333.984C262.725 333.523 263.032 333.216 263.493 333.216C263.954 333.216 264.261 333.523 264.261 333.984L278.703 510.194C278.703 510.654 278.396 510.962 277.935 510.962Z" fill="#374151"/>
<path d="M402.383 514.342L451.087 506.967L466.297 343.816L427.58 337.671L402.383 514.342Z" fill="#407BFF"/>
<path opacity="0.2" d="M402.383 514.342L451.087 506.967L466.297 343.816L427.58 337.671L402.383 514.342Z" fill="black"/>
<path d="M236.912 474.552L232.457 370.24C231.996 359.332 240.753 350.422 251.662 350.576L387.019 353.648C398.388 353.955 406.838 363.941 405.302 375.156L390.245 480.236C388.862 489.761 380.566 496.674 370.887 496.367L255.042 492.527C245.209 492.219 237.22 484.384 236.912 474.552Z" fill="#374151"/>
<path d="M372.424 454.427C371.809 454.427 371.348 454.273 370.887 453.813L357.674 439.372L343.539 452.276C342.771 453.044 341.388 453.044 340.62 452.123L327.407 437.682L313.272 450.586C312.504 451.355 311.121 451.355 310.353 450.433L297.14 435.992L283.005 448.897C282.544 449.204 282.083 449.511 281.622 449.357C281.161 449.357 280.547 449.05 280.239 448.743L267.026 434.302L252.891 447.207C252.123 447.975 250.741 447.975 249.972 447.053C249.204 446.285 249.204 444.902 250.126 444.134L265.797 429.847C266.565 429.079 267.948 429.079 268.716 430.001L281.929 444.441L296.064 431.537C296.525 431.23 296.986 430.922 297.447 431.076C297.908 431.076 298.523 431.383 298.83 431.69L312.043 446.131L326.178 433.227C326.946 432.459 328.329 432.459 329.097 433.38L342.31 447.821L356.445 434.917C357.213 434.148 358.596 434.148 359.364 435.07L373.806 450.894C374.574 451.662 374.574 453.044 373.653 453.813C373.499 454.12 372.884 454.427 372.424 454.427Z" fill="white"/>
<path d="M129.365 518.182L119.686 513.573L111.082 471.787L115.845 466.717L129.365 518.182Z" fill="#407BFF"/>
<path d="M129.366 518.182L142.118 510.654L131.21 476.242L115.846 466.717L129.366 518.182Z" fill="#407BFF"/>
<path opacity="0.2" d="M129.366 518.182L142.118 510.654L131.21 476.242L115.846 466.717L129.366 518.182Z" fill="black"/>
<path d="M338.623 525.71C338.316 525.71 337.855 525.71 337.548 525.71C333.246 525.556 330.02 522.023 330.02 517.875C330.173 513.573 333.707 510.347 337.855 510.347C349.685 510.808 374.729 503.434 389.017 489.607C389.939 488.686 391.015 488.071 392.09 487.764C416.365 480.543 425.43 495.138 425.737 495.753L412.524 503.587C412.524 503.587 412.524 503.741 412.678 503.895C412.524 503.741 409.144 499.286 398.082 502.051C380.413 518.336 352.912 525.71 338.623 525.71Z" fill="#374151"/>
<path d="M337.701 535.849L309.739 534.159L307.588 482.541L345.23 483.923L337.701 535.849Z" fill="#407BFF"/>
<path d="M337.701 535.849L344.308 529.397L348.302 497.289L345.23 483.923L337.701 535.849Z" fill="#407BFF"/>
<path opacity="0.2" d="M337.701 535.849L344.308 529.397L348.302 497.289L345.23 483.923L337.701 535.849Z" fill="black"/>
<path d="M499.791 516.339C498.869 516.339 497.794 516.031 497.026 515.417C481.047 503.28 459.538 481.773 451.241 460.879C451.087 460.572 451.087 460.265 450.934 459.958C446.939 435.992 443.098 385.449 442.944 383.298C442.791 380.686 444.635 378.536 447.246 378.382C449.705 378.228 452.009 380.072 452.163 382.684C452.163 383.144 456.158 434.302 459.999 458.114C468.295 478.393 490.727 499.132 502.71 508.196C504.708 509.733 505.169 512.652 503.632 514.649C502.557 515.724 501.174 516.339 499.791 516.339Z" fill="#374151"/>
<path d="M521.147 518.643C517.614 518.643 513.619 516.953 509.163 513.881C507.166 512.344 506.705 509.579 508.088 507.428C509.624 505.431 512.39 504.97 514.541 506.353C518.382 509.118 520.379 509.425 521.147 509.425C523.759 509.425 525.756 511.423 525.756 514.034C525.756 516.646 523.759 518.643 521.147 518.643Z" fill="#374151"/>
<path d="M510.394 513.727C515.31 499.132 535.591 501.898 542.505 504.202C549.418 506.353 555.718 509.118 559.559 511.576C563.4 514.034 563.4 518.182 558.33 520.487C552.184 523.406 536.513 520.794 536.513 520.794C544.502 524.327 536.513 530.011 522.378 524.481C517.922 522.637 508.704 519.104 510.394 513.727Z" fill="#407BFF"/>
<path d="M461.381 389.597C459.538 402.04 449.244 411.258 440.794 410.029C432.343 408.8 432.036 397.739 433.88 385.295C435.723 372.851 438.95 363.787 447.4 365.016C455.85 366.245 463.225 377.153 461.381 389.597Z" fill="#374151"/>
<path d="M258.577 339.975C259.256 339.975 259.806 339.425 259.806 338.746C259.806 338.068 259.256 337.517 258.577 337.517C257.898 337.517 257.348 338.068 257.348 338.746C257.348 339.425 257.898 339.975 258.577 339.975Z" fill="#374151"/>
<path d="M271.329 347.81C271.329 348.578 270.715 349.039 270.1 349.039C269.486 349.039 268.871 348.425 268.871 347.81C268.871 347.042 269.486 346.581 270.1 346.581C270.715 346.581 271.329 347.042 271.329 347.81Z" fill="#374151"/>
<path d="M272.865 496.674C272.865 497.443 272.25 497.903 271.635 497.903C270.867 497.903 270.406 497.289 270.406 496.674C270.406 495.906 271.021 495.445 271.635 495.445C272.25 495.445 272.865 495.906 272.865 496.674Z" fill="#374151"/>
<path d="M284.388 505.739C284.388 506.507 283.773 506.968 283.159 506.968C282.391 506.968 281.93 506.353 281.93 505.739C281.93 504.97 282.544 504.509 283.159 504.509C283.773 504.509 284.388 504.97 284.388 505.739Z" fill="#374151"/>
<path d="M247.822 392.977C247.976 386.678 252.892 382.53 259.192 382.53C265.491 382.684 270.407 386.985 270.254 393.284C270.1 399.582 265.184 403.73 258.884 403.73C252.585 403.577 247.822 399.275 247.822 392.977ZM263.954 393.13C263.954 390.211 262.111 387.907 259.192 387.907C256.272 387.907 254.275 390.058 254.121 392.977C254.121 395.895 255.965 398.2 258.884 398.2C261.957 398.2 263.954 396.049 263.954 393.13Z" fill="#FFFDFF"/>
<path d="M301.597 383.452L301.29 403.884L272.252 403.423L272.559 382.991L278.705 383.144L278.398 398.2L283.621 398.353L283.929 383.298L290.074 383.452L289.767 398.507L294.991 398.661L295.298 383.605L301.597 383.452Z" fill="#FFFDFF"/>
<path d="M304.668 404.038L304.975 383.605L311.121 383.759L310.967 394.666L318.342 383.913L324.795 384.066L324.488 404.498L318.342 404.345L318.496 392.669L310.814 404.191L304.668 404.038Z" fill="#FFFDFF"/>
<path d="M345.077 384.22L344.924 389.597L334.015 389.443V391.133L339.086 391.287C343.695 391.287 346.153 394.513 345.999 398.046C345.999 401.733 343.387 404.806 338.778 404.652L327.562 404.498L327.87 384.066L345.077 384.22ZM334.015 396.51V399.122H338.317C339.239 399.122 339.854 398.661 339.854 397.893C339.854 397.124 339.239 396.51 338.317 396.51H334.015Z" fill="#FFFDFF"/>
<path d="M359.98 404.959L355.524 397.739L354.295 399.275L354.142 404.959L347.996 404.806L348.303 384.373L354.449 384.527L354.295 392.208L359.826 384.681L367.355 384.834L359.519 394.205L367.355 405.267L359.98 404.959Z" fill="#FFFDFF"/>
<path d="M382.256 405.267L381.488 402.809L374.113 402.655L373.345 405.113L366.277 404.959L374.113 384.527L381.949 384.681L389.17 405.267H382.256ZM378.108 390.826L375.957 397.432H379.951L378.108 390.826Z" fill="#FFFDFF"/>
<path d="M62.8383 520.794C59.1509 520.794 54.2345 518.643 51.6226 514.802C51.3153 514.495 51.4689 514.034 51.7762 513.727C52.0835 513.42 52.5444 513.573 52.8517 513.881C55.7709 518.029 62.0701 520.179 64.8356 518.95C65.1429 518.797 65.2965 518.643 65.6038 518.49C63.1456 517.26 60.841 515.11 60.2264 511.576C59.9191 509.579 59.6119 506.967 61.1483 506.66C63.2992 506.199 66.2184 511.423 67.2939 515.571C67.4475 516.339 67.6011 516.953 67.4475 517.568C68.3693 517.875 69.4448 517.875 70.213 517.721C70.8276 517.568 71.7494 517.414 72.364 516.646C70.5203 515.417 69.2912 513.113 68.8303 510.194C68.2157 506.046 68.6766 505.278 69.1375 504.97C69.4448 504.663 69.7521 504.663 70.213 504.817C71.9031 505.585 73.9004 511.423 74.2077 514.802C74.2077 515.11 74.2077 515.571 74.2077 515.878C74.8222 516.185 75.5904 516.339 76.205 516.339C77.5878 516.339 78.8169 516.031 79.8924 515.417C79.7387 515.263 79.4314 515.11 79.2778 514.956C77.7414 513.573 76.9732 511.423 77.2805 508.35C77.4341 505.892 78.0487 504.663 78.9705 504.202C79.2778 504.049 80.046 503.895 80.8142 504.509C82.5042 505.892 84.0406 510.04 83.4261 513.113C83.2724 513.727 82.9652 514.342 82.6579 514.956C85.4234 515.417 89.418 514.649 92.7981 513.881C93.259 513.727 93.5663 514.034 93.72 514.495C93.8736 514.956 93.5663 515.263 93.1054 515.417C88.9571 516.492 84.5016 517.261 81.2751 516.339C79.8924 517.414 77.895 518.182 75.8977 518.182C74.9759 518.182 74.2077 518.029 73.4395 517.721C72.8249 518.797 71.7494 519.411 70.213 519.719C69.1375 519.872 68.0621 519.719 66.8329 519.411C66.5257 520.026 65.9111 520.487 65.2965 520.794C64.8356 520.64 63.9138 520.794 62.8383 520.794ZM61.6092 508.043C61.4555 508.35 61.3019 509.118 61.7628 511.115C62.2237 513.881 64.0674 515.878 66.0647 516.8C66.0647 516.492 66.0647 516.185 65.9111 515.724C64.682 511.423 62.3774 508.35 61.6092 508.043ZM70.213 506.814C70.213 507.428 70.213 508.35 70.5203 510.04C70.8276 512.191 71.5958 513.881 72.8249 514.956C72.364 511.73 70.9812 508.197 70.213 506.814ZM79.7387 505.431C79.7387 505.431 79.1242 505.738 78.9705 508.35C78.8169 510.962 79.2778 512.652 80.3533 513.727C80.6606 514.034 80.9678 514.188 81.2751 514.342C81.736 513.881 82.0433 513.266 82.0433 512.805C82.5042 510.655 81.4288 507.275 80.1996 506.046C80.046 505.431 79.8924 505.431 79.7387 505.431Z" fill="#374151"/>
<path d="M287.768 532.47L291.916 525.249L287.768 518.029H283.312L285.771 525.249L283.312 532.47H287.768Z" fill="#374151"/>
<path d="M283.62 528.936C281.623 528.936 279.933 527.246 279.933 525.095C279.933 523.098 281.623 521.408 283.62 521.408L276.553 520.026L274.709 525.71L277.935 530.472L283.62 528.936Z" fill="#374151"/>
<path d="M284.234 518.029H275.937L271.789 525.249L275.937 532.47H284.234L288.382 525.249L284.234 518.029ZM280.086 528.936C278.088 528.936 276.398 527.246 276.398 525.095C276.398 523.098 278.088 521.408 280.086 521.408C282.237 521.408 283.773 523.098 283.773 525.095C283.773 527.246 282.083 528.936 280.086 528.936Z" fill="#407BFF"/>
<path d="M578.147 517.568L575.074 512.191L578.147 506.814H581.527L579.683 512.191L581.527 517.568H578.147Z" fill="#407BFF"/>
<path d="M581.221 514.956C582.757 514.956 583.986 513.727 583.986 512.191C583.986 510.655 582.757 509.426 581.221 509.426L586.444 508.35L587.827 512.652L585.523 516.185L581.221 514.956Z" fill="#407BFF"/>
<path d="M580.758 506.814H586.904L589.977 512.191L586.904 517.568H580.758L577.686 512.191L580.758 506.814ZM583.985 514.956C585.521 514.956 586.75 513.727 586.75 512.191C586.75 510.655 585.521 509.426 583.985 509.426C582.448 509.426 581.219 510.655 581.219 512.191C581.066 513.727 582.448 514.956 583.985 514.956Z" fill="#374151"/>
<path d="M463.071 524.634H469.985C471.829 524.634 473.211 523.098 473.211 521.408C473.211 519.565 471.675 518.182 469.985 518.182H463.071C461.227 518.182 459.845 519.718 459.845 521.408C459.691 523.098 461.227 524.634 463.071 524.634Z" fill="#374151"/>
<path d="M452.009 518.489C453.699 514.802 457.847 513.266 461.227 514.802C464.607 516.338 465.99 520.64 464.3 524.327C462.61 528.014 458.461 529.55 455.081 528.014C451.548 526.324 450.165 522.023 452.009 518.489Z" fill="#407BFF"/>
<path d="M453.857 527.866L455.803 528.784L462.421 514.749L460.476 513.832L453.857 527.866Z" fill="#374151"/>
</g>
<defs>
<clipPath id="clip0">
<rect width="631" height="538" fill="white"/>
</clipPath>
</defs>
</svg>
