<?xml version="1.0" encoding="utf-8"?>
<!-- Generator: Adobe Illustrator 24.0.2, SVG Export Plug-In . SVG Version: 6.00 Build 0)  -->
<svg version="1.1" xmlns="http://www.w3.org/2000/svg" xmlns:xlink="http://www.w3.org/1999/xlink" x="0px" y="0px"
	 viewBox="0 0 1200 1200" style="enable-background:new 0 0 1200 1200;" xml:space="preserve">
<style type="text/css">
	.st0{fill:#6D757B;}
	.st1{fill:#EFEFEF;}
	.st2{fill:#1ABC9C;}
	.st3{fill:#D1D5D8;}
	.st4{fill:#E0E0E0;}
	.st5{fill:#F9F9F9;}
	.st6{fill:#53C2D1;}
	.st7{fill:#FCC287;}
	.st8{fill:#844C2C;}
	.st9{fill:#584845;}
	.st10{fill:#B95B3D;}
	.st11{fill:#37B7C9;}
	.st12{fill:#7E6760;}
	.st13{fill:#725E58;}
	.st14{fill:#EFEDEB;}
	.st15{fill:#35ABBA;}
	.st16{fill:#F8B77C;}
	.st17{fill:#795115;}
	.st18{fill:#5B3D10;}
	.st19{fill:#4E2C14;}
	.st20{fill:#F7D8BA;}
	.st21{fill:#E1593C;}
	.st22{fill:#D65037;}
</style>
<g id="Background">
</g>
<g id="Character">
	<g>
		<g>
			<path class="st0" d="M358,270.1c0-14.3,11.6-25.9,25.9-25.9h738.6c14.3,0,25.9,11.6,25.9,25.9V756c0,14.3-11.6,25.9-25.9,25.9
				H383.8c-14.3,0-25.9-11.6-25.9-25.9V270.1z"/>
			<path class="st1" d="M396.1,308.6c0-14.3,11.6-25.9,25.9-25.9h662.4c14.3,0,25.9,11.6,25.9,25.9v409c0,14.3-11.6,25.9-25.9,25.9
				H421.9c-14.3,0-25.9-11.6-25.9-25.9V308.6z"/>
		</g>
		<path class="st2" d="M1004.6,316.3l0,51l0,4.9L965,411.7c10.2,9.5,23,14.5,36.1,14.9c1.2,0,2.3,0,3.5,0c13.6-0.4,27-5.8,37.3-16.1
			c10.3-10.3,15.7-23.8,16.1-37.3c0-1.2,0-2.3,0-3.5c-0.4-13-5.4-25.9-14.9-36.1c-0.4-0.4-0.8-0.8-1.2-1.3c-0.4-0.4-0.8-0.8-1.3-1.2
			C1030.5,321.6,1017.6,316.7,1004.6,316.3z"/>
		<g>
			<path class="st3" d="M794.2,382.9c0,6.4,5.2,11.6,11.6,11.6h121.8c6.4,0,11.6-5.2,11.6-11.6l0,0c0-6.4-5.2-11.6-11.6-11.6H805.8
				C799.4,371.3,794.2,376.5,794.2,382.9L794.2,382.9z"/>
			<path class="st3" d="M794.2,348.2c0,6.4,5.2,11.6,11.6,11.6h121.8c6.4,0,11.6-5.2,11.6-11.6l0,0c0-6.4-5.2-11.6-11.6-11.6H805.8
				C799.4,336.7,794.2,341.8,794.2,348.2L794.2,348.2z"/>
			<path class="st3" d="M794.2,417.6c0,6.4,5.2,11.6,11.6,11.6h121.8c6.4,0,11.6-5.2,11.6-11.6l0,0c0-6.4-5.2-11.6-11.6-11.6H805.8
				C799.4,406,794.2,411.2,794.2,417.6L794.2,417.6z"/>
		</g>
		<g>
			<path class="st3" d="M521.9,384.7h37.9c3.3,0,5.9,2.7,5.9,5.9v111.2c0,3.3-2.7,5.9-5.9,5.9h-37.9c-3.3,0-5.9-2.7-5.9-5.9V390.6
				C516,387.4,518.7,384.7,521.9,384.7z"/>
			<path class="st3" d="M450.2,419.6h37.9c3.3,0,5.9,2.7,5.9,5.9v76.3c0,3.3-2.7,5.9-5.9,5.9h-37.9c-3.3,0-5.9-2.7-5.9-5.9v-76.3
				C444.2,422.3,446.9,419.6,450.2,419.6z"/>
			<path class="st2" d="M659.1,313.7c0-3.3,2.7-5.9,5.9-5.9H703c3.3,0,5.9,2.7,5.9,5.9v188.1c0,3.3-2.7,5.9-5.9,5.9h-37.9
				c-3.3,0-5.9-2.7-5.9-5.9V313.7z"/>
			<path class="st3" d="M593.3,330.8h37.9c3.3,0,5.9,2.7,5.9,5.9v164.6c0,3.3-2.7,5.9-5.9,5.9h-37.9c-3.3,0-5.9-2.7-5.9-5.9V336.7
				C587.4,333.5,590,330.8,593.3,330.8z"/>
			<path class="st2" d="M670.9,535.4c0,6.8,5.5,12.3,12.3,12.3c6.8,0,12.3-5.5,12.3-12.3c0-6.8-5.5-12.3-12.3-12.3
				C676.4,523.1,670.9,528.6,670.9,535.4z"/>
			<path class="st3" d="M599.9,538.5c0,6.8,5.5,12.3,12.3,12.3c6.8,0,12.3-5.5,12.3-12.3c0-6.8-5.5-12.3-12.3-12.3
				C605.5,526.1,599.9,531.7,599.9,538.5z"/>
			<path class="st3" d="M528.6,535.4c0,6.8,5.5,12.3,12.3,12.3s12.3-5.5,12.3-12.3c0-6.8-5.5-12.3-12.3-12.3
				S528.6,528.6,528.6,535.4z"/>
			<path class="st3" d="M456.8,535.4c0,6.8,5.5,12.3,12.3,12.3c6.8,0,12.3-5.5,12.3-12.3c0-6.8-5.5-12.3-12.3-12.3
				C462.3,523.1,456.8,528.6,456.8,535.4z"/>
		</g>
		<g>
			<g>
				<path class="st3" d="M801,606.3h250.5c2.2,0,4,1.8,4,4v31.1c0,2.2-1.8,4-4,4H801c-2.2,0-4-1.8-4-4v-31.1
					C797,608.1,798.8,606.3,801,606.3z"/>
				<path class="st2" d="M1051.5,606.3c2.2,0,4,1.8,4,4v31.1c0,2.2-1.8,4-4,4H915.7v-39.1H1051.5z"/>
			</g>
			<g>
				<path class="st3" d="M801,656.1h250.5c2.2,0,4,1.8,4,4v31.1c0,2.2-1.8,4-4,4H801c-2.2,0-4-1.8-4-4v-31.1
					C797,657.9,798.8,656.1,801,656.1z"/>
				<path class="st2" d="M1051.5,656.1c2.2,0,4,1.8,4,4v31.1c0,2.2-1.8,4-4,4H883.5v-39.1H1051.5z"/>
			</g>
		</g>
		<rect x="713.6" y="754" class="st0" width="68.5" height="386.9"/>
		<path class="st0" d="M651,1092.6h193.8c19.1,0,34.7,15.5,34.7,34.7v10c0,2-1.6,3.7-3.7,3.7H620c-2,0-3.7-1.6-3.7-3.7v-10
			C616.3,1108.1,631.8,1092.6,651,1092.6z"/>
		<g>
			<path class="st4" d="M478.2,599.6c7.6,0,13.6,6.1,13.6,13.6v35.4c0,7.6-6.1,13.6-13.6,13.6h-35.4c-7.6,0-13.6-6.1-13.6-13.6V609
				c0-5.2,4.2-9.4,9.4-9.4H478.2z"/>
			<path class="st5" d="M450,618.2v26c0,0.7,0.6,1.3,1.3,1.3h18.3c0.7,0,1.3-0.6,1.3-1.3v-26c0-0.7-0.6-1.3-1.3-1.3h-18.3
				C450.7,616.9,450,617.5,450,618.2z M455.7,643.3c0-0.3,0.2-0.6,0.6-0.6h9.2c0.3,0,0.6,0.2,0.6,0.6v0c0,0.3-0.2,0.6-0.6,0.6h-9.2
				C455.9,643.9,455.7,643.7,455.7,643.3L455.7,643.3z M453.1,643.4c0-0.3,0.3-0.6,0.6-0.6c0.3,0,0.6,0.3,0.6,0.6
				c0,0.3-0.3,0.6-0.6,0.6C453.3,643.9,453.1,643.7,453.1,643.4z M451.6,618.6h17.8v23.5h-17.8V618.6z"/>
			<g>
				<path class="st2" d="M438.2,701.6v-6.8h-11.6v-2.2l11.1-15.9h3.6v15.5h3.5v2.6h-3.5v6.8H438.2z M438.2,692.2v-8.3
					c0-1.3,0-2.6,0.1-3.9h-0.1c-0.8,1.5-1.4,2.5-2.1,3.7l-6.1,8.5v0.1H438.2z"/>
				<path class="st2" d="M463.9,688.9c0,8.5-3.1,13.1-8.6,13.1c-4.9,0-8.2-4.6-8.2-12.8c0-8.3,3.6-12.9,8.6-12.9
					C460.9,676.3,463.9,681,463.9,688.9z M450.4,689.3c0,6.5,2,10.1,5.1,10.1c3.4,0,5.1-4,5.1-10.4c0-6.1-1.6-10.1-5.1-10.1
					C452.6,678.9,450.4,682.5,450.4,689.3z"/>
				<path class="st2" d="M478.2,683.7c0,5.2-2.8,7.8-6,7.8c-3.1,0-5.8-2.5-5.8-7.5c0-5,2.7-7.8,6-7.8
					C476,676.3,478.2,679,478.2,683.7z M469.1,684c-0.1,3.2,1.1,5.6,3.2,5.6c2.2,0,3.2-2.4,3.2-5.7c0-3-0.9-5.5-3.2-5.5
					C470.2,678.3,469.1,680.8,469.1,684z M472,702l14.6-25.7h2.1L474.2,702H472z M494.4,694c0,5.2-2.8,7.8-5.9,7.8
					c-3.1,0-5.8-2.5-5.8-7.5c0-5,2.7-7.8,6-7.8C492.2,686.6,494.4,689.3,494.4,694z M485.3,694.2c0,3.2,1.2,5.6,3.3,5.6
					c2.2,0,3.2-2.4,3.2-5.7c0-3-0.9-5.5-3.2-5.5C486.5,688.6,485.3,691.1,485.3,694.2z"/>
			</g>
		</g>
		<g>
			<path class="st4" d="M514.9,599.6h39.6c7.6,0,13.6,6.1,13.6,13.6v35.4c0,7.6-6.1,13.6-13.6,13.6h-35.4c-7.6,0-13.6-6.1-13.6-13.6
				V609C505.5,603.8,509.7,599.6,514.9,599.6z"/>
			<g>
				<polygon class="st5" points="531,643.5 542.5,643.5 539.8,641.5 533.7,641.5 				"/>
				<rect x="530" y="644.1" class="st5" width="14" height="1.4"/>
				<path class="st5" d="M517.9,618.1v21.8c0,0.5,0.5,1,1,1h35.6c0.6,0,1-0.4,1-1v-21.8c0-0.6-0.5-1-1-1H519
					C518.4,617.1,517.9,617.6,517.9,618.1z M534.5,639.1c0-0.2,0.2-0.4,0.4-0.4h3.8c0.2,0,0.4,0.2,0.4,0.4v0.2
					c0,0.2-0.2,0.4-0.4,0.4h-3.8c-0.2,0-0.4-0.2-0.4-0.4V639.1z M519.5,618.7h34.6v18.4h-34.6V618.7z"/>
			</g>
			<g>
				<path class="st2" d="M518.4,679.6h-9.5l-1,6.4c0.6-0.1,1.1-0.2,2-0.2c1.9,0,3.8,0.4,5.4,1.3c2,1.1,3.6,3.3,3.6,6.4
					c0,4.9-3.9,8.5-9.3,8.5c-2.7,0-5-0.8-6.2-1.5l0.8-2.6c1,0.6,3.1,1.4,5.3,1.4c3.2,0,5.9-2.1,5.9-5.4c0-3.2-2.2-5.5-7.2-5.5
					c-1.4,0-2.5,0.2-3.4,0.3l1.6-11.9h11.9V679.6z"/>
				<path class="st2" d="M523.1,701.6v-2.1l2.6-2.6c6.4-6,9.2-9.3,9.3-13c0-2.5-1.2-4.9-4.9-4.9c-2.3,0-4.1,1.1-5.3,2.1l-1.1-2.4
					c1.7-1.5,4.2-2.5,7-2.5c5.4,0,7.6,3.7,7.6,7.2c0,4.6-3.3,8.3-8.6,13.4l-2,1.8v0.1H539v2.8H523.1z"/>
				<path class="st2" d="M554,683.7c0,5.2-2.8,7.8-6,7.8c-3.1,0-5.8-2.5-5.8-7.5c0-5,2.7-7.8,6-7.8C551.7,676.3,554,679,554,683.7z
					 M544.9,684c-0.1,3.2,1.1,5.6,3.2,5.6c2.2,0,3.2-2.4,3.2-5.7c0-3-0.9-5.5-3.2-5.5C546,678.3,544.9,680.8,544.9,684z M547.8,702
					l14.6-25.7h2.1L549.9,702H547.8z M570.2,694c0,5.2-2.8,7.8-5.9,7.8c-3.1,0-5.8-2.5-5.8-7.5c0-5,2.7-7.8,6-7.8
					C567.9,686.6,570.2,689.3,570.2,694z M561.1,694.2c0,3.2,1.2,5.6,3.3,5.6c2.2,0,3.2-2.4,3.2-5.7c0-3-0.9-5.5-3.2-5.5
					C562.2,688.6,561.1,691.1,561.1,694.2z"/>
			</g>
		</g>
		<g>
			<path class="st4" d="M595,599.6h39.6c7.6,0,13.6,6.1,13.6,13.6v35.4c0,7.6-6.1,13.6-13.6,13.6h-35.4c-7.6,0-13.6-6.1-13.6-13.6
				V609C585.6,603.8,589.8,599.6,595,599.6z"/>
			<g>
				<path class="st2" d="M598,679.1c-0.7,0-1.6,0-2.5,0.2c-5.3,0.9-8.1,4.7-8.6,8.8h0.1c1.2-1.6,3.3-2.9,6-2.9c4.4,0,7.5,3.2,7.5,8
					c0,4.6-3.1,8.8-8.3,8.8c-5.3,0-8.8-4.1-8.8-10.6c0-4.9,1.8-8.8,4.2-11.2c2.1-2,4.8-3.3,8-3.7c1-0.2,1.8-0.2,2.4-0.2V679.1z
					 M597.1,693.4c0-3.6-2-5.7-5.1-5.7c-2,0-3.9,1.3-4.8,3.1c-0.2,0.4-0.4,0.9-0.4,1.5c0.1,4.1,2,7.1,5.5,7.1
					C595.1,699.4,597.1,697,597.1,693.4z"/>
				<path class="st2" d="M618.3,679.6h-9.5l-1,6.4c0.6-0.1,1.1-0.2,2-0.2c1.9,0,3.8,0.4,5.4,1.3c2,1.1,3.6,3.3,3.6,6.4
					c0,4.9-3.9,8.5-9.3,8.5c-2.7,0-5-0.8-6.2-1.5l0.8-2.6c1,0.6,3.1,1.4,5.3,1.4c3.2,0,5.9-2.1,5.9-5.4c0-3.2-2.2-5.5-7.2-5.5
					c-1.4,0-2.5,0.2-3.4,0.3l1.6-11.9h11.9V679.6z"/>
				<path class="st2" d="M634.3,683.7c0,5.2-2.8,7.8-6,7.8c-3.1,0-5.8-2.5-5.8-7.5c0-5,2.7-7.8,6-7.8
					C632,676.3,634.3,679,634.3,683.7z M625.2,684c-0.1,3.2,1.1,5.6,3.2,5.6c2.2,0,3.2-2.4,3.2-5.7c0-3-0.9-5.5-3.2-5.5
					C626.3,678.3,625.2,680.8,625.2,684z M628.1,702l14.6-25.7h2.1L630.3,702H628.1z M650.5,694c0,5.2-2.8,7.8-5.9,7.8
					c-3.1,0-5.8-2.5-5.8-7.5c0-5,2.7-7.8,6-7.8C648.2,686.6,650.5,689.3,650.5,694z M641.4,694.2c0,3.2,1.2,5.6,3.3,5.6
					c2.2,0,3.2-2.4,3.2-5.7c0-3-0.9-5.5-3.2-5.5C642.5,688.6,641.4,691.1,641.4,694.2z"/>
			</g>
		</g>
		<g>
			<path class="st2" d="M672.6,599.6h39.6c7.6,0,13.6,6.1,13.6,13.6v35.4c0,7.6-6.1,13.6-13.6,13.6h-35.4c-7.6,0-13.6-6.1-13.6-13.6
				V609C663.2,603.8,667.4,599.6,672.6,599.6z"/>
			<g>
				<path class="st2" d="M664.1,695.3c0-3.1,1.9-5.4,4.9-6.7l0-0.1c-2.8-1.3-3.9-3.4-3.9-5.6c0-3.9,3.3-6.6,7.7-6.6
					c4.8,0,7.2,3,7.2,6.1c0,2.1-1,4.4-4.1,5.8v0.1c3.1,1.2,5,3.4,5,6.4c0,4.3-3.7,7.2-8.5,7.2C667.2,702,664.1,698.9,664.1,695.3z
					 M677.4,695.1c0-3-2.1-4.5-5.5-5.4c-2.9,0.8-4.5,2.8-4.5,5.1c-0.1,2.5,1.8,4.7,5,4.7C675.5,699.6,677.4,697.7,677.4,695.1z
					 M668.2,682.7c0,2.5,1.9,3.8,4.7,4.6c2.1-0.7,3.8-2.3,3.8-4.5c0-2-1.2-4.1-4.2-4.1C669.7,678.7,668.2,680.5,668.2,682.7z"/>
				<path class="st2" d="M700.5,688.9c0,8.5-3.1,13.1-8.6,13.1c-4.9,0-8.2-4.6-8.2-12.8c0-8.3,3.6-12.9,8.6-12.9
					C697.5,676.3,700.5,681,700.5,688.9z M687,689.3c0,6.5,2,10.1,5.1,10.1c3.4,0,5.1-4,5.1-10.4c0-6.1-1.6-10.1-5.1-10.1
					C689.2,678.9,687,682.5,687,689.3z"/>
				<path class="st2" d="M714.8,683.7c0,5.2-2.8,7.8-6,7.8c-3.1,0-5.8-2.5-5.8-7.5c0-5,2.7-7.8,6-7.8
					C712.5,676.3,714.8,679,714.8,683.7z M705.7,684c-0.1,3.2,1.1,5.6,3.2,5.6c2.2,0,3.2-2.4,3.2-5.7c0-3-0.9-5.5-3.2-5.5
					C706.8,678.3,705.7,680.8,705.7,684z M708.6,702l14.6-25.7h2.1L710.8,702H708.6z M731,694c0,5.2-2.8,7.8-5.9,7.8
					c-3.1,0-5.8-2.5-5.8-7.5c0-5,2.7-7.8,6-7.8C728.8,686.6,731,689.3,731,694z M721.9,694.2c0,3.2,1.2,5.6,3.3,5.6
					c2.2,0,3.2-2.4,3.2-5.7c0-3-0.9-5.5-3.2-5.5C723.1,688.6,721.9,691.1,721.9,694.2z"/>
			</g>
		</g>
		<g>
			<path class="st3" d="M794.2,459.2c0-5.2,4.2-9.4,9.4-9.4h242.5c5.2,0,9.4,4.2,9.4,9.4v4.3c0,5.2-4.2,9.4-9.4,9.4H803.6
				c-5.2,0-9.4-4.2-9.4-9.4V459.2z"/>
			<path class="st3" d="M794.2,494c0-5.2,4.2-9.4,9.4-9.4h242.5c5.2,0,9.4,4.2,9.4,9.4v4.3c0,5.2-4.2,9.4-9.4,9.4H803.6
				c-5.2,0-9.4-4.2-9.4-9.4V494z"/>
			<path class="st3" d="M803.6,518.5h242.5c5.2,0,9.4,4.2,9.4,9.4v4.3c0,5.2-4.2,9.4-9.4,9.4H803.6c-5.2,0-9.4-4.2-9.4-9.4v-4.3
				C794.2,522.7,798.4,518.5,803.6,518.5z"/>
			<path class="st3" d="M803.6,553.2h242.5c5.2,0,9.4,4.2,9.4,9.4v4.3c0,5.2-4.2,9.4-9.4,9.4H803.6c-5.2,0-9.4-4.2-9.4-9.4v-4.3
				C794.2,557.4,798.4,553.2,803.6,553.2z"/>
		</g>
	</g>
	<g>
		<g>
			<g>
				<path class="st6" d="M513.6,663c16.8-0.3,30.6,12.9,30.9,29.6c0.3,16.6-13.1,30.3-29.9,30.6c-16.8,0.3-30.6-12.9-30.9-29.6
					C483.5,677,496.9,663.3,513.6,663z"/>
				<path class="st6" d="M402.7,567.6c-11.2,0.4-21.5,5.4-28.2,13.8l-2.4,3c-6.7,8.4-9.3,19.4-7.1,30.3c2.2,10.9,8.9,20.7,18.5,27.1
					c36.5,24.1,77.7,52.3,114.2,76.4c1.9,1.2,4.3,0.9,5.6-0.7l31.4-41.5c1.3-1.6,1-4-0.6-5.5c-32.1-29.6-68.4-61.7-100.5-91.3
					C425.2,571.3,414,567.1,402.7,567.6z"/>
				<path class="st6" d="M413.8,598c5.7,4.4,6.6,12.6,2.1,18.2c-4.5,5.6-12.7,6.6-18.4,2.1c-5.7-4.4-6.6-12.6-2.1-18.2
					C400,594.6,408.2,593.6,413.8,598z"/>
			</g>
			<g>
				<g>
					<path class="st7" d="M620.2,538L576,514.1l-16.2,30c-5,9.3-2.1,20.7,6.5,25.3l28.6,15.5c8.6,4.7,19.7,0.9,24.8-8.4l7.1-13.1
						C631.8,554,628.9,542.7,620.2,538z"/>
					
						<rect x="560.2" y="564.1" transform="matrix(0.4759 -0.8795 0.8795 0.4759 -211.9875 813.5075)" class="st7" width="32.7" height="41"/>
					<path class="st7" d="M577.6,517.5c0.4-2,0-4-1.1-5.7c-1.1-1.7-2.8-2.9-4.8-3.3l-0.3-0.1c-4.1-0.9-8.2,1.7-9,5.8l-7.7,36.1
						c-1.8,8.4,3.5,16.6,11.9,18.4L577.6,517.5z"/>
					<path class="st7" d="M605,493.1c1-1.8,1.2-3.9,0.6-5.8c-0.6-1.9-1.9-3.6-3.7-4.5l-0.3-0.1c-3.7-2-8.3-0.6-10.3,3.1L566.4,532
						l13.7,7.4L605,493.1z"/>
				</g>
				<g>
					<path class="st6" d="M505.6,688c2.9-5.1,9.3-6.9,14.3-4c5,2.9,6.8,9.3,3.9,14.4c-2.9,5.1-9.3,6.9-14.3,4
						C504.4,699.5,502.7,693.1,505.6,688z"/>
					<path class="st6" d="M499.3,716.2l3.4,1.9c13.4,7.6,30.4,3.4,38.1-10.1l59-104.9c0.7-1.2,0.3-2.6-0.9-3.3L550.7,574
						c-1.2-0.7-2.6-0.2-3.3,0.9l-59,103.8C480.7,692.2,486,708.6,499.3,716.2z"/>
					
						<ellipse transform="matrix(0.4684 -0.8835 0.8835 0.4684 -338.8584 823.2595)" class="st6" cx="514.7" cy="693.2" rx="30.4" ry="30.1"/>
				</g>
			</g>
		</g>
		<g>
			<g>
				<g>
					<g>
						<path class="st8" d="M184.6,1106.8c0,2.3,3.4,4.1,7.6,4.1h37.1c4.2,0,7.7-1.8,7.7-4.1v-31.5c0-2.3-3.4-4.1-7.7-4.1h-37.1
							c-4.2,0-7.6,1.8-7.6,4.1V1106.8z"/>
					</g>
				</g>
				<rect x="184.6" y="1091.1" class="st1" width="52.4" height="18.9"/>
				<path class="st9" d="M240.5,1137.8c0,1.1-1,2.1-2.2,2.1h-30.2c-1.2,0-2.2-0.9-2.2-2.1v-5.6h34.6V1137.8z"/>
				<path class="st9" d="M200.9,1137.8c0,1.1-1,2.1-2.2,2.1h-77.6c-1.6,0-2.9-1.8-2.9-4.1v-3.5h82.7V1137.8z"/>
				<path class="st10" d="M236.1,1107h-47.7c-2.1,0-3.8-1.6-3.8-3.6v-7.3c0-2.3-1.9-4.1-4.4-4.1h-21.9c-22.1,0-40.1,16.8-40.1,37.5
					v4h122.3v-22.5C240.5,1108.9,238.5,1107,236.1,1107z"/>
			</g>
			<g>
				<g>
					<g>
						<path class="st8" d="M402.3,1106.8c0,2.3-3.4,4.1-7.6,4.1h-37.1c-4.2,0-7.7-1.8-7.7-4.1v-31.5c0-2.3,3.4-4.1,7.7-4.1h37.1
							c4.2,0,7.6,1.8,7.6,4.1V1106.8z"/>
					</g>
				</g>
				<rect x="350" y="1091.1" class="st1" width="52.4" height="18.9"/>
				<path class="st9" d="M346.4,1137.8c0,1.1,1,2.1,2.2,2.1h30.2c1.2,0,2.2-0.9,2.2-2.1v-5.6h-34.6V1137.8z"/>
				<path class="st9" d="M386,1137.8c0,1.1,1,2.1,2.2,2.1h77.6c1.6,0,2.9-1.8,2.9-4.1v-3.5H386V1137.8z"/>
				<path class="st10" d="M350.8,1107h47.7c2.1,0,3.8-1.6,3.8-3.6v-7.3c0-2.3,1.9-4.1,4.4-4.1h21.9c22.1,0,40.1,16.8,40.1,37.5v4
					H346.4v-22.5C346.4,1108.9,348.4,1107,350.8,1107z"/>
			</g>
		</g>
		<polygon class="st6" points="413.3,569.1 293,541.1 173.6,569.1 173.6,569.1 173.6,802.2 413.3,802.2 413.3,569.1 		"/>
		<polygon class="st7" points="292,463 251.6,463 251.6,594.9 292,594.9 332.5,594.9 332.5,463 		"/>
		<rect x="283" y="590.8" class="st11" width="20" height="211.4"/>
		<g>
			<path class="st12" d="M413.3,802.2h-73.6h-92.6h-73.6v68.9v199.7h73.6V881.7c0-5.8,5.9-10.5,13.3-10.5h66
				c7.3,0,13.3,4.7,13.3,10.5v189.2h73.6L413.3,802.2L413.3,802.2z"/>
			<g>
				<path class="st13" d="M247.2,1057h-73.6c-3.3,0-6,2.1-6,4.8v18.1c0,2.6,2.7,4.8,6,4.8h73.6c3.3,0,6-2.1,6-4.8v-18.1
					C253.2,1059.2,250.5,1057,247.2,1057z"/>
				<path class="st13" d="M413.4,1057h-73.6c-3.3,0-6,2.1-6,4.8v18.1c0,2.6,2.7,4.8,6,4.8h73.6c3.3,0,6-2.1,6-4.8v-18.1
					C419.4,1059.2,416.7,1057,413.4,1057z"/>
			</g>
		</g>
		<g>
			<path class="st14" d="M297,632.4c0,1.9-1.9,3.4-4.3,3.4c-2.4,0-4.3-1.5-4.3-3.4c0-1.9,1.9-3.4,4.3-3.4
				C295.1,629,297,630.5,297,632.4z"/>
			<path class="st14" d="M297,702.6c0,1.9-1.9,3.4-4.3,3.4c-2.4,0-4.3-1.5-4.3-3.4c0-1.9,1.9-3.4,4.3-3.4
				C295.1,699.2,297,700.7,297,702.6z"/>
			<path class="st14" d="M297.3,778.6c0,1.9-1.9,3.4-4.3,3.4c-2.4,0-4.3-1.5-4.3-3.4c0-1.9,1.9-3.4,4.3-3.4
				C295.3,775.2,297.3,776.7,297.3,778.6z"/>
		</g>
		<g>
			<path class="st15" d="M246.1,552.3c-0.6-0.5-1.4-0.6-2.1-0.4l-12.4,3.8c-1.2,0.4-2.2,1.3-2.7,2.5c-0.5,1.2-0.4,2.6,0.2,3.7
				l30.1,54.7c1.4,2.6,4.1,4.3,7,4.5c2.9,0.2,5.7-1.2,7.5-3.6l19.2-26.8L246.1,552.3z"/>
			<path class="st15" d="M356.7,558.3c-0.5-1.2-1.5-2.2-2.7-2.5l-12.4-3.8c-0.7-0.2-1.5-0.1-2.1,0.4l-46.9,38.5l19.2,26.8
				c1.7,2.4,4.6,3.8,7.5,3.6c2.9-0.2,5.6-1.9,7-4.5l30.1-54.7C357.1,560.9,357.2,559.5,356.7,558.3z"/>
		</g>
		<path class="st15" d="M220.6,638.9c0,2.4-1.9,4.3-4.3,4.3c-2.4,0-4.3-1.9-4.3-4.3c0-2.4,1.9-4.3,4.3-4.3
			C218.7,634.7,220.6,636.6,220.6,638.9z"/>
		<g>
			<g>
				<path class="st6" d="M112.4,712.8c-0.5,16.6-14.4,29.7-31,29.2c-16.6-0.5-29.7-14.4-29.2-31c0.5-16.6,14.4-29.7,31-29.2
					C99.8,682.3,112.9,696.2,112.4,712.8z"/>
				<path class="st6" d="M212.9,607.6c0.1-11.1-4.4-21.5-12.5-28.5l-2.9-2.5c-8.1-7-18.9-10.1-29.9-8.4c-11,1.6-21.1,7.8-27.9,17.1
					c-25.8,35-55.9,74.4-81.6,109.4c-1.3,1.8-1.1,4.2,0.4,5.5l40,32.9c1.6,1.4,4,1.2,5.5-0.3c31.1-30.4,64.8-64.8,95.9-95.1
					C208.1,629.5,212.8,618.7,212.9,607.6z"/>
				<path class="st6" d="M181.9,617.1c-4.7,5.4-12.9,6-18.3,1.3c-5.4-4.7-6-12.9-1.3-18.3c4.7-5.4,12.9-6,18.3-1.3
					C186,603.6,186.6,611.7,181.9,617.1z"/>
			</g>
			<g>
				<g>
					<path class="st7" d="M160,844.8c-6.9-7-6.7-18.3,0.3-25.2l23.3-22.8c7-6.9,18.3-6.7,25.2,0.3l9.8,10c6.8,7,6.7,18.1-0.3,24.9
						L194.9,855c-7,6.9-18.3,6.7-25.2-0.3L160,844.8z"/>
					
						<rect x="128.3" y="743.7" transform="matrix(0.7151 -0.699 0.699 0.7151 -506.0602 327.5805)" class="st7" width="41.1" height="81.8"/>
				</g>
				<g>
					<path class="st6" d="M90,704.8c3.9,4.3,3.6,10.9-0.6,14.8c-4.3,3.9-10.9,3.6-14.8-0.6c-3.9-4.3-3.6-10.9,0.6-14.8
						C79.5,700.2,86.1,700.5,90,704.8z"/>
					<path class="st6" d="M65.3,690.4l-2.9,2.7c-11.3,10.4-12.6,27.8-2.2,39.1l81.1,87.3c0.9,1,2.4,1,3.4,0.1l39.4-38.1
						c1-0.9,1-2.4,0.1-3.4l-80-86.9C93.8,679.9,76.6,680,65.3,690.4z"/>
					<path class="st6" d="M104.4,691.5c11.3,12.2,10.5,31.3-1.8,42.5c-12.2,11.3-31.3,10.5-42.5-1.8C48.9,720,49.7,701,61.9,689.7
						C74.2,678.5,93.2,679.3,104.4,691.5z"/>
				</g>
			</g>
		</g>
		<g>
			<g>
				<path class="st15" d="M186.8,633.3v39.2c0,6.2,6.4,11.3,14.2,11.3h31.8c7.8,0,14.2-5,14.2-11.3v-39.2H186.8z"/>
				<path class="st14" d="M248.3,631.5h-62.9c-0.8,0-1.5,0.5-1.5,1.2v13.6c0,0.6,0.7,1.2,1.5,1.2h62.9c0.8,0,1.5-0.5,1.5-1.2v-13.6
					C249.8,632.1,249.1,631.5,248.3,631.5z"/>
				<path class="st15" d="M221.1,639.9c0,2.4-1.9,4.3-4.3,4.3c-2.4,0-4.3-1.9-4.3-4.3c0-2.4,1.9-4.3,4.3-4.3
					C219.2,635.6,221.1,637.5,221.1,639.9z"/>
			</g>
			<g>
				<path class="st15" d="M339.1,633.3v39.2c0,6.2,6.4,11.3,14.2,11.3H385c7.8,0,14.2-5,14.2-11.3v-39.2H339.1z"/>
				<path class="st14" d="M400.6,631.5h-62.9c-0.8,0-1.5,0.5-1.5,1.2v13.6c0,0.6,0.7,1.2,1.5,1.2h62.9c0.8,0,1.5-0.5,1.5-1.2v-13.6
					C402.1,632.1,401.4,631.5,400.6,631.5z"/>
				<path class="st15" d="M373.4,639.9c0,2.4-1.9,4.3-4.3,4.3c-2.4,0-4.3-1.9-4.3-4.3c0-2.4,1.9-4.3,4.3-4.3
					C371.5,635.6,373.4,637.5,373.4,639.9z"/>
			</g>
		</g>
	</g>
	<g>
		<g>
			<path class="st16" d="M418.8,417.5c-0.3,6.8-2.8,15-9.5,14.6l0,0c-6.7-0.4-11.9-6.1-11.5-12.9l2.3-40.5
				c0.4-6.7,6.1-11.9,12.9-11.5l0,0c6.8,0.4,12.6,6.2,11.5,12.9C423,389.4,419.5,399.1,418.8,417.5z"/>
			<path class="st7" d="M158.1,417.5c0.3,6.8,2.8,15,9.5,14.6l0,0c6.7-0.4,11.9-6.1,11.5-12.9l-2.2-40.5
				c-0.4-6.7-6.1-11.9-12.9-11.5l0,0c-6.8,0.4-12.6,6.2-11.5,12.9C153.9,389.4,157.4,399.1,158.1,417.5z"/>
			<g>
				<path class="st7" d="M399.6,435.9c0,32-25.9,57.9-57.9,57.9H236.1c-32,0-57.9-25.9-57.9-57.9l-5.8-134.6
					c0-32,25.9-57.9,57.9-57.9h117.2c32,0,57.9,25.9,57.9,57.9L399.6,435.9z"/>
				<g>
					<path class="st16" d="M347.1,243.4h-58.6v250.4h52.8c32,0,57.9-25.9,57.9-57.9l5.8-134.6C405,269.3,379,243.4,347.1,243.4z"/>
				</g>
			</g>
			<g>
				<path class="st17" d="M237.1,445.6c-33.3,4.8-58.1-12.8-58.1-46.5l-2.9-95.9c-2.4,6.6-3.8,13.6-3.8,29.7l-6.1,142.8
					c0,25,27.3,52.3,61,52.3h61.3l2.9-35.5l-2.9-52.8C256.7,439.9,249.9,443.7,237.1,445.6z"/>
				<path class="st18" d="M405.5,332.9c0-16.1-1.4-23.2-3.8-29.7l-2.9,95.9c0,33.7-24.7,51.3-58.1,46.5c-12.9-1.9-19.7-5.8-51.7-5.8
					c-0.2,0-0.4,0-0.5,0v88.3h62.2c33.7,0,61-27.3,61-52.3L405.5,332.9z"/>
			</g>
			<g>
				<path class="st16" d="M289.9,478c-16.7,0-33.7-8.7-32.8-11.2c0.9-2.5,3.7-3.7,6.2-2.8l0,0c0.3,0.1,26,9.6,51.2,0
					c2.5-0.9,5.3,0.3,6.2,2.8C321.7,469.3,307.5,478,289.9,478z"/>
			</g>
			<g>
				<path class="st18" d="M322.9,348.9c26-11.1,52-0.1,52.3,0c4.4,1.8,10.2-11.9,5.7-13.7c-1.3-0.5-33-17.2-66-4
					C310.4,332.9,318.3,350.9,322.9,348.9z"/>
			</g>
			<g>
				<path class="st19" d="M360.4,372.2c0,5.8-4.7,10.5-10.5,10.5c-5.8,0-10.5-4.7-10.5-10.5c0-5.8,4.7-10.5,10.5-10.5
					C355.7,361.7,360.4,366.4,360.4,372.2z"/>
				<path class="st20" d="M356,370c0,2-1.6,3.6-3.6,3.6c-2,0-3.6-1.6-3.6-3.6c0-2,1.6-3.6,3.6-3.6C354.5,366.4,356,368,356,370z"/>
			</g>
			<g>
				<path class="st17" d="M255.1,348.9c-26-11.1-52-0.1-52.3,0c-4.4,1.8-10.2-11.9-5.7-13.7c1.3-0.5,33-17.2,66-4
					C267.5,332.9,259.6,350.9,255.1,348.9z"/>
			</g>
			<g>
				<path class="st7" d="M266.1,433.4c0,6.4,10.5,11.5,22.9,11.7l-0.5-128.8C280.1,326.1,266.1,433.4,266.1,433.4z"/>
				<path class="st16" d="M300.8,360.2c-5-27.6-8.7-40.9-12.3-44V445c0.2,0,0.4,0,0.5,0c12.7,0,22.9-5.2,22.9-11.7
					C311.9,433.4,307.6,398,300.8,360.2z"/>
			</g>
			<path class="st7" d="M277.5,437.4c0,3.2-3.3,5.7-7.5,5.7c-4.1,0-7.4-2.6-7.4-5.7c0-3.2,3.3-5.7,7.4-5.7
				C274.2,431.7,277.5,434.2,277.5,437.4z"/>
			<path class="st16" d="M315.1,437.4c0,3.2-3.3,5.7-7.4,5.7c-4.1,0-7.4-2.6-7.4-5.7c0-3.2,3.3-5.7,7.4-5.7
				C311.7,431.7,315.1,434.2,315.1,437.4z"/>
			<g>
				<path class="st17" d="M241.5,197.2c-48.5,11.8-39.3,49.3-39.3,49.3c-5.8-9.7-35.7-13.3-40.8,21.5c-5.3,36.3,11.5,64.3,11.5,64.3
					s3.7,2.2,5.4-18.5c0-53.2,31.8-24.6,31.8-24.6s17.4-51.7,70.2-8.8c2.8,2.2,5.5,4.3,8.1,6.4l2.9-52.2l-2.9-41.5
					C274.5,192.1,258.9,193,241.5,197.2z"/>
				<path class="st18" d="M405.5,209.1c-15.8,55.7-43.3-9.6-117.1-15.9v93.7C447.8,408.9,435.4,226.4,405.5,209.1z"/>
			</g>
			<g>
				<path class="st19" d="M238.1,372.2c0,5.8-4.7,10.5-10.5,10.5c-5.8,0-10.5-4.7-10.5-10.5c0-5.8,4.7-10.5,10.5-10.5
					C233.4,361.7,238.1,366.4,238.1,372.2z"/>
				<path class="st20" d="M233.7,370c0,2-1.6,3.6-3.6,3.6c-2,0-3.6-1.6-3.6-3.6c0-2,1.6-3.6,3.6-3.6
					C232.2,366.4,233.7,368,233.7,370z"/>
			</g>
		</g>
		<g>
			<path class="st21" d="M230.8,340.7c-27.2-0.9-61.8,4.5-61.8,4.5c0,21.7,1.2,19.3,4.7,23.1c11.7,13.2,6.9,42,51.6,44.4
				c44.7,2.4,49.4-21.5,53.2-32c3.5-9.9,7.1-12.7,10.1-13.1v-17.8C268.3,349.3,257.6,341.5,230.8,340.7z M272,373.3
				c-4.7,26.1-12,35.5-46.5,34.7c-34.5-0.9-38.2-17.9-39.4-33.2c-1.2-15.3-0.6-27,36.2-27.3C241,347.4,276.6,347.2,272,373.3z"/>
			<path class="st22" d="M346.9,340.7c-27,0.9-37.6,8.8-58.1,9.2c-0.1,0-0.2,0-0.3,0v17.8c0.1,0,0.2,0,0.3,0
				c3.1,0.2,6.8,2.9,10.4,13.1c3.8,10.6,8.5,34.4,53.2,32c44.7-2.3,39.9-31.2,51.6-44.4c3.5-3.8,4.7-1.4,4.7-23.1
				C408.7,345.2,374.1,339.8,346.9,340.7z M391.6,374.8c-1.2,15.3-4.9,32.3-39.4,33.2c-34.5,0.9-41.8-8.5-46.4-34.7
				c-4.7-26.1,31-26,49.7-25.8C392.2,347.8,392.7,359.6,391.6,374.8z"/>
		</g>
	</g>
</g>
</svg>
