<svg width="12" height="12" viewBox="0 0 12 12" fill="none" xmlns="http://www.w3.org/2000/svg">
<g opacity="0.5">
<path d="M11.1111 0H4.47793C4.00518 0 3.62061 0.3846 3.62061 0.857322V2.86951H4.40321V0.857322C4.40321 0.81613 4.43674 0.782609 4.47793 0.782609H11.1111C11.1523 0.782609 11.1858 0.81613 11.1858 0.857322V7.4905C11.1858 7.53172 11.1523 7.56524 11.1111 7.56524H9.16166V8.34785H11.1111C11.5838 8.34785 11.9684 7.96325 11.9684 7.4905V0.857322C11.9684 0.3846 11.5838 0 11.1111 0Z" fill="#374151"/>
<path d="M7.52175 3.6521H0.888598C0.41585 3.6521 0.03125 4.0367 0.03125 4.50945V11.1426C0.0312761 11.6154 0.41585 12 0.888598 12H7.52178C7.99453 12 8.37913 11.6154 8.37913 11.1427V4.50945C8.37915 4.0367 7.9945 3.6521 7.52175 3.6521ZM7.52181 11.2174H0.888598C0.84738 11.2174 0.813859 11.1838 0.813859 11.1427V4.50945C0.813859 4.46823 0.84738 4.43471 0.888598 4.43471H7.52178C7.563 4.43471 7.59652 4.46823 7.59652 4.50945V11.1427H7.59655C7.59655 11.1838 7.563 11.2174 7.52181 11.2174Z" fill="#374151"/>
</g>
</svg>
