<svg width="16" height="16" viewBox="0 0 16 16" fill="none" xmlns="http://www.w3.org/2000/svg">
<path d="M8 0C3.58877 0 0 3.58877 0 8C0 12.4112 3.58871 16 7.99993 16C12.4112 16 15.9999 12.4112 15.9999 8C15.9999 3.58877 12.4112 0 8 0ZM8 14.0435C4.6676 14.0435 1.95652 11.3324 1.95652 8C1.95652 4.6676 4.6676 1.95652 8 1.95652C11.3324 1.95652 14.0435 4.6676 14.0435 8C14.0435 11.3324 11.3323 14.0435 8 14.0435Z" fill="#9CA3AF"/>
<path d="M8.9785 7.11957H7.02197V12.2717H8.9785V7.11957Z" fill="#9CA3AF"/>
<path d="M8.9785 3.72827H7.02197V5.61957H8.9785V3.72827Z" fill="#9CA3AF"/>
</svg>
