<svg width="1007" height="261" viewBox="0 0 1007 261" fill="none" xmlns="http://www.w3.org/2000/svg">
<path d="M63.9265 180.779C41.0287 180.779 19.7198 171.163 0 151.932L8.80059 136.042C11.6526 130.99 15.8492 128.016 21.3903 127.12C26.9314 126.223 32.4318 127.446 37.8914 130.787C48.7292 137.876 57.4075 141.461 63.9265 141.543C71.0159 141.624 76.557 140.239 80.5498 137.387C84.6242 134.535 86.6613 130.135 86.6613 124.186C86.6613 120.438 84.8279 117.056 81.161 114.041C77.4941 110.944 71.8307 108.011 64.171 105.24C45.8364 99.0474 32.2688 91.5506 23.4682 82.75C14.7491 73.8679 10.3896 63.3153 10.3896 51.0923C10.3896 35.8542 15.6455 23.5497 26.1573 14.1787C36.6691 4.72624 50.3997 0 67.3489 0C76.6385 0 86.0502 1.71122 95.5842 5.13367C105.2 8.55612 113.022 13.4861 119.052 19.9236L110.985 33.98C108.785 37.7285 106.055 40.5805 102.796 42.5362C99.5363 44.4919 96.3176 45.429 93.1396 45.3475C90.0431 45.266 86.9465 44.6548 83.8501 43.514C78.4719 40.5805 72.9715 39.1137 67.3489 39.1137C62.7042 39.1137 58.9558 40.2138 56.1037 42.4139C53.3332 44.5326 51.9479 47.3846 51.9479 50.9701C51.9479 54.2295 53.8629 57.1631 57.6927 59.7707C61.5226 62.2968 67.4712 64.7006 75.5384 66.9822C110.659 76.2718 128.22 95.299 128.22 124.064C128.22 141.013 122.312 154.703 110.496 165.133C98.6807 175.564 83.1574 180.779 63.9265 180.779Z" fill="#374151"/>
<path d="M495.216 178.456H453.658V2.32237H522.718C539.667 2.32237 553.805 7.74125 565.132 18.579C576.54 29.3353 582.244 43.3103 582.244 60.504C582.244 66.7785 580.981 72.8086 578.455 78.5941C575.929 84.2982 572.669 89.0652 568.677 92.8951C564.765 96.725 560.406 99.7807 555.598 102.062C550.79 104.344 546.064 105.485 541.419 105.485H537.019V105.729C548.02 106.137 556.209 110.537 561.587 118.93L601.434 178.456H565.132C560.976 178.456 557.268 177.601 554.009 175.89C550.831 174.178 547.816 170.919 544.964 166.111L514.04 118.808H495.216V178.456Z" fill="#374151"/>
<path d="M734.287 2.32237H764.478L689.795 178.456H652.882L578.321 2.32237H608.512C618.046 2.32237 624.728 6.88564 628.558 16.0122L665.227 104.263C668.079 110.944 669.913 120.478 670.727 132.864H671.95C672.765 120.804 674.598 111.27 677.45 104.263L714.242 16.0122C717.908 6.88564 724.59 2.32237 734.287 2.32237Z" fill="#374151"/>
<path d="M817.637 178.456H776.079V2.32237H817.637V178.456Z" fill="#374151"/>
<path d="M964.921 2.32237H1006.11V178.456H975.677C970.38 178.456 965.573 175.401 961.254 169.289L887.671 61.1152H887.06C890.482 69.5898 892.112 78.3089 891.949 87.2725L891.705 178.456H850.391V2.32237L883.76 2.44461C888.242 2.44461 891.827 3.38171 894.516 5.2559C897.205 7.04861 900.179 10.3488 903.439 15.1566L969.443 112.696H970.054C966.469 103.814 964.676 94.6063 964.676 85.0723L964.921 2.32237Z" fill="#374151"/>
<path d="M278.628 42.0878C278.628 42.0878 278.628 21.5942 278.628 17.5199C278.506 7.33402 269.339 3.34075 263.747 3.34075H140.997V42.0878H189.033C189.033 91.8905 188.87 112.216 188.87 159.103C189.889 174.382 196 179.475 205.168 179.475H230.592V42.0878H278.628Z" fill="#374151"/>
<path d="M210.573 251.688V223.197H221.518C224.217 223.197 226.43 224.021 228.158 225.669C229.899 227.317 230.769 229.424 230.769 231.989C230.769 234.541 229.899 236.641 228.158 238.289C226.416 239.938 224.203 240.762 221.518 240.762H214.52V251.688H210.573ZM214.52 236.894H221.518C223.06 236.894 224.33 236.435 225.326 235.518C226.323 234.588 226.822 233.411 226.822 231.989C226.822 230.567 226.323 229.397 225.326 228.48C224.33 227.563 223.06 227.105 221.518 227.105H214.52V236.894ZM252.236 251.688H234.512V223.197H252.236V227.144H238.459V235.139H249.644V239.067H238.459V247.76H252.236V251.688ZM285.717 223.197H289.665V251.688H257.944V223.197H261.892V248.039H271.901V223.197H275.848V248.039H285.717V223.197ZM314.911 251.688H297.187V223.197H314.911V227.144H301.135V235.139H312.32V239.067H301.135V247.76H314.911V251.688ZM340.039 223.217H343.987V251.688H340.039V239.306H324.567V251.688H320.62V223.217H324.567V235.578H340.039V223.217ZM355.438 223.197V242.775C355.438 243.693 355.212 244.636 354.76 245.607H354.82L369.275 224.433C369.594 223.968 369.946 223.649 370.331 223.476C370.73 223.29 371.208 223.197 371.767 223.197H374.817V251.688H370.87V230.893C370.87 229.949 371.036 229.058 371.368 228.221H371.268L355.936 250.79C355.524 251.388 355.066 251.688 354.561 251.688H351.51V223.197H355.438ZM396.677 251.688V240.124H392.271L384.415 250.411C383.79 251.262 382.86 251.688 381.624 251.688H378.693L387.127 240.522C387.366 240.203 387.632 239.971 387.924 239.825C388.217 239.678 388.622 239.565 389.14 239.486V239.466L388.582 239.446C387.851 239.433 387.087 239.233 386.289 238.848C385.505 238.449 384.781 237.917 384.116 237.253C383.452 236.588 382.907 235.764 382.481 234.78C382.056 233.784 381.843 232.734 381.843 231.63C381.843 229.238 382.674 227.237 384.335 225.629C385.997 224.008 388.044 223.197 390.476 223.197H400.624V251.688H396.677ZM396.677 227.144H390.676C389.28 227.144 388.117 227.563 387.186 228.4C386.256 229.238 385.791 230.314 385.791 231.63C385.791 232.906 386.256 233.983 387.186 234.86C388.13 235.737 389.28 236.176 390.636 236.176H396.677V227.144ZM440.412 248.039H443.921L443.901 251.688V257.25H441.728C440.758 257.25 440.273 256.679 440.273 255.535V251.688H419.199V255.456C419.199 256.014 419.059 256.439 418.78 256.732C418.514 257.024 418.142 257.17 417.664 257.17L415.57 257.15V248.039H416.069C416.348 248.039 416.693 247.933 417.105 247.72C417.531 247.507 417.983 247.175 418.461 246.723C418.94 246.271 419.392 245.739 419.817 245.128C420.242 244.517 420.608 243.759 420.914 242.855C421.233 241.951 421.419 240.994 421.472 239.984L422.528 223.197H440.412V248.039ZM422.11 248.039H436.465V226.865H426.257L425.419 240.243C425.207 243.447 424.104 246.045 422.11 248.039ZM469.611 223.197V251.688H465.663V226.865H455.057L454.259 242.536C454.179 244.238 453.933 245.72 453.521 246.982C453.109 248.245 452.584 249.229 451.946 249.933C451.322 250.624 450.644 251.136 449.913 251.468C449.195 251.787 448.417 251.947 447.58 251.947C446.144 251.947 444.895 251.727 443.832 251.289L444.191 249.375C444.257 248.963 444.383 248.67 444.569 248.497C444.755 248.311 445.041 248.225 445.427 248.238C445.573 248.238 445.812 248.265 446.144 248.318C446.49 248.371 446.749 248.398 446.922 248.398C447.281 248.398 447.626 248.311 447.959 248.139C448.304 247.966 448.65 247.673 448.996 247.261C449.341 246.849 449.634 246.218 449.873 245.367C450.112 244.503 450.258 243.467 450.311 242.257L451.288 223.197H469.611ZM491.459 251.688V240.124H487.053L479.198 250.411C478.573 251.262 477.643 251.688 476.406 251.688H473.476L481.909 240.522C482.148 240.203 482.414 239.971 482.707 239.825C482.999 239.678 483.405 239.565 483.923 239.486V239.466L483.365 239.446C482.634 239.433 481.869 239.233 481.072 238.848C480.288 238.449 479.563 237.917 478.899 237.253C478.234 236.588 477.689 235.764 477.264 234.78C476.838 233.784 476.626 232.734 476.626 231.63C476.626 229.238 477.457 227.237 479.118 225.629C480.779 224.008 482.826 223.197 485.259 223.197H495.407V251.688H491.459ZM491.459 227.144H485.458C484.062 227.144 482.899 227.563 481.969 228.4C481.039 229.238 480.573 230.314 480.573 231.63C480.573 232.906 481.039 233.983 481.969 234.86C482.913 235.737 484.062 236.176 485.418 236.176H491.459V227.144ZM526.602 223.197L539.043 251.688H536.491C535.321 251.688 534.504 251.169 534.039 250.132L531.945 245.307H517.77L515.656 250.132C515.444 250.624 515.125 251.01 514.699 251.289C514.274 251.555 513.782 251.688 513.224 251.688H510.672L523.113 223.197H526.602ZM519.464 241.4H530.231L525.665 230.913C525.213 229.876 524.974 229.025 524.947 228.361H524.748C524.721 229.052 524.489 229.902 524.05 230.913L519.464 241.4ZM542.379 251.688V223.197H553.205C555.731 223.197 557.811 223.934 559.446 225.41C561.081 226.872 561.898 228.739 561.898 231.012C561.898 232.488 561.473 233.817 560.622 235C559.785 236.169 558.622 236.781 557.133 236.834V236.914C558.316 236.954 559.379 237.313 560.323 237.99C561.28 238.655 561.998 239.492 562.476 240.503C562.968 241.499 563.214 242.549 563.214 243.653C563.214 245.965 562.383 247.879 560.722 249.395C559.074 250.91 556.987 251.668 554.461 251.668L542.379 251.688ZM546.327 235.418H553.544C554.78 235.418 555.824 235.02 556.675 234.222C557.539 233.425 557.97 232.441 557.97 231.271C557.97 230.049 557.532 229.058 556.655 228.301C555.777 227.53 554.628 227.144 553.205 227.144H546.327V235.418ZM546.327 247.76L554.302 247.74C555.764 247.74 556.954 247.341 557.871 246.544C558.801 245.733 559.273 244.696 559.286 243.433C559.3 242.264 558.854 241.28 557.951 240.483C557.06 239.672 555.963 239.266 554.661 239.266H546.327V247.76ZM564.839 227.124V223.197H586.491V227.124H577.659V251.688H573.711V227.124H564.839ZM586.86 237.452C586.86 235.432 587.239 233.524 587.996 231.73C588.767 229.922 589.804 228.367 591.107 227.065C592.409 225.762 593.964 224.732 595.772 223.974C597.593 223.217 599.514 222.838 601.534 222.838C604.232 222.838 606.704 223.483 608.951 224.772C611.197 226.061 612.965 227.829 614.254 230.075C615.557 232.308 616.208 234.767 616.208 237.452C616.208 240.137 615.557 242.596 614.254 244.829C612.965 247.062 611.197 248.823 608.951 250.112C606.704 251.402 604.232 252.046 601.534 252.046C599.514 252.046 597.593 251.668 595.772 250.91C593.964 250.152 592.409 249.129 591.107 247.84C589.804 246.537 588.767 244.982 587.996 243.174C587.239 241.367 586.86 239.459 586.86 237.452ZM592.223 232.049C591.279 233.684 590.808 235.485 590.808 237.452C590.808 239.419 591.279 241.22 592.223 242.855C593.18 244.49 594.476 245.779 596.111 246.723C597.759 247.653 599.573 248.119 601.554 248.119C603.521 248.119 605.322 247.653 606.957 246.723C608.605 245.779 609.901 244.49 610.845 242.855C611.788 241.22 612.26 239.419 612.26 237.452C612.26 235.485 611.788 233.684 610.845 232.049C609.901 230.414 608.605 229.132 606.957 228.201C605.322 227.257 603.521 226.786 601.554 226.786C599.573 226.786 597.759 227.257 596.111 228.201C594.476 229.132 593.18 230.414 592.223 232.049ZM621.634 251.688V223.197H640.116V224.632C640.116 226.307 639.345 227.144 637.803 227.144H625.582V235.418L634.095 235.379C636.434 235.379 638.415 236.156 640.036 237.711C641.658 239.266 642.469 241.174 642.469 243.433C642.469 245.733 641.658 247.68 640.036 249.275C638.415 250.87 636.434 251.668 634.095 251.668L621.634 251.688ZM625.582 247.76L633.955 247.74C635.245 247.74 636.328 247.328 637.205 246.504C638.082 245.666 638.528 244.643 638.541 243.433C638.554 242.264 638.116 241.28 637.225 240.483C636.348 239.685 635.258 239.286 633.955 239.286H625.582V247.76ZM651.351 223.197V242.775C651.351 243.693 651.125 244.636 650.673 245.607H650.733L665.188 224.433C665.507 223.968 665.859 223.649 666.244 223.476C666.643 223.29 667.121 223.197 667.68 223.197H670.73V251.688H666.783V230.893C666.783 229.949 666.949 229.058 667.281 228.221H667.181L651.849 250.79C651.437 251.388 650.979 251.688 650.474 251.688H647.423V223.197H651.351ZM689.041 236.415C690.915 236.734 692.437 237.565 693.607 238.908C694.79 240.25 695.381 241.832 695.381 243.653C695.381 246.098 694.451 248.105 692.59 249.674C690.729 251.242 688.316 252.026 685.352 252.026C683.664 252.026 681.996 251.681 680.348 250.99C678.7 250.299 677.278 249.388 676.081 248.258L677.019 246.783C677.258 246.397 677.603 246.152 678.055 246.045C678.521 245.926 678.986 246.012 679.451 246.304C681.139 247.554 683.053 248.178 685.193 248.178C687.16 248.178 688.709 247.753 689.838 246.902C690.981 246.039 691.553 244.856 691.553 243.354C691.553 241.852 690.908 240.662 689.619 239.785C688.33 238.908 686.682 238.469 684.675 238.469H682.461V234.641H684.675C686.309 234.641 687.625 234.302 688.622 233.624C689.632 232.933 690.137 231.976 690.137 230.753C690.137 229.357 689.699 228.334 688.822 227.683C687.958 227.031 686.821 226.706 685.412 226.706C683.591 226.706 681.624 227.397 679.511 228.779C679.178 229.019 678.806 229.098 678.394 229.019C677.995 228.939 677.683 228.693 677.457 228.281L676.66 226.805C677.723 225.556 679.072 224.586 680.707 223.895C682.342 223.19 684.05 222.838 685.831 222.838C688.197 222.838 690.131 223.516 691.633 224.872C693.148 226.214 693.906 228.028 693.906 230.314C693.906 231.843 693.467 233.159 692.59 234.262C691.712 235.352 690.53 236.07 689.041 236.415ZM719.724 223.217H723.671V251.688H719.724V239.306H704.252V251.688H700.305V223.217H704.252V235.578H719.724V223.217ZM748.899 251.688H731.175V223.197H748.899V227.144H735.123V235.139H746.308V239.067H735.123V247.76H748.899V251.688ZM767.208 252.046C764.497 252.046 762.018 251.408 759.772 250.132C757.525 248.856 755.758 247.102 754.468 244.869C753.179 242.623 752.534 240.15 752.534 237.452C752.534 234.754 753.179 232.288 754.468 230.055C755.758 227.809 757.525 226.048 759.772 224.772C762.018 223.483 764.497 222.838 767.208 222.838C769.109 222.838 770.983 223.237 772.831 224.034C774.678 224.818 776.233 225.868 777.496 227.184L776.579 228.062C776.1 228.54 775.575 228.846 775.004 228.979C774.432 229.112 773.861 229.032 773.289 228.739C771.468 227.437 769.441 226.786 767.208 226.786C765.228 226.786 763.42 227.251 761.785 228.181C760.15 229.112 758.854 230.394 757.897 232.029C756.954 233.664 756.482 235.472 756.482 237.452C756.482 239.433 756.954 241.24 757.897 242.875C758.854 244.51 760.15 245.793 761.785 246.723C763.42 247.653 765.228 248.119 767.208 248.119C769.455 248.119 771.501 247.441 773.349 246.085C773.921 245.779 774.499 245.686 775.084 245.806C775.682 245.912 776.227 246.191 776.718 246.643L777.656 247.54C776.38 248.91 774.804 250.006 772.93 250.83C771.07 251.641 769.162 252.046 767.208 252.046ZM794.574 223.197L807.015 251.688H804.463C803.294 251.688 802.476 251.169 802.011 250.132L799.918 245.307H785.742L783.629 250.132C783.416 250.624 783.097 251.01 782.672 251.289C782.246 251.555 781.755 251.688 781.196 251.688H778.644L791.085 223.197H794.574ZM787.437 241.4H798.203L793.637 230.913C793.185 229.876 792.946 229.025 792.92 228.361H792.72C792.694 229.052 792.461 229.902 792.022 230.913L787.437 241.4Z" fill="#1F2937"/>
<path d="M409.716 177.946H439.907L365.224 1.81242H328.311L253.75 177.946H276.406C291.812 178.531 297.25 176.718 303.987 164.257L340.656 76.0063C343.508 69.3243 345.341 59.7904 346.156 47.4044H347.379C348.193 59.4644 350.027 68.9984 352.879 76.0063L389.67 164.257C393.337 173.383 400.019 177.946 409.716 177.946Z" fill="#374151"/>
<path d="M462.187 39.6602H494.938L504.423 9.0625L514.982 39.6602H560.969C527.438 51.6562 442.5 67 295.438 174.906C299.389 170.777 305.6 155.371 309.5 151.5C392.5 80.5 451.5 56.5 451.5 56.5L477.594 46.2188L462.187 39.6602Z" fill="#374151"/>
<path d="M462.188 39.6602H494.938L504.424 9.0625L514.983 39.6602H560.969C543.124 46.0444 503.989 56.3179 453.7 78.8438C453.7 69.3498 453.7 63.0054 453.7 58.5285L453.7 55.6L477.594 46.2188L462.188 39.6602Z" fill="white"/>
<path d="M530.156 83.375L503.997 68.9268L522.755 61.9249L530.156 83.375Z" fill="white"/>
<path d="M481.038 83.375L496.625 71.4124L483.575 76.125L481.038 83.375Z" fill="white"/>
</svg>
