<svg width="168" height="31" viewBox="0 0 168 31" fill="none" xmlns="http://www.w3.org/2000/svg">
<path d="M10.6744 30.6708C6.85094 30.6708 3.29281 29.0652 0 25.8541L1.46952 23.2008C1.94575 22.3572 2.64649 21.8605 3.57174 21.7108C4.49699 21.5612 5.41544 21.7653 6.32709 22.3231C8.13677 23.5069 9.58587 24.1056 10.6744 24.1192C11.8582 24.1328 12.7834 23.9015 13.4502 23.4253C14.1305 22.9491 14.4707 22.2143 14.4707 21.221C14.4707 20.5951 14.1645 20.0304 13.5522 19.527C12.9399 19.0099 11.9942 18.5201 10.7152 18.0575C7.65373 17.0234 5.38823 15.7716 3.91871 14.302C2.4628 12.8189 1.73485 11.0569 1.73485 9.01586C1.73485 6.47142 2.61247 4.41681 4.36773 2.85205C6.12299 1.27368 8.4157 0.484497 11.2459 0.484497C12.797 0.484497 14.3686 0.770236 15.9606 1.34171C17.5662 1.91319 18.8724 2.73639 19.8793 3.81132L18.5322 6.15846C18.1649 6.78437 17.709 7.2606 17.1648 7.58716C16.6205 7.91372 16.083 8.0702 15.5524 8.05659C15.0353 8.04298 14.5183 7.94093 14.0012 7.75044C13.1032 7.2606 12.1847 7.01568 11.2459 7.01568C10.4703 7.01568 9.8444 7.19937 9.36817 7.56675C8.90554 7.92052 8.67423 8.39675 8.67423 8.99545C8.67423 9.53971 8.99399 10.0296 9.6335 10.465C10.273 10.8868 11.2663 11.2882 12.6134 11.6691C18.4778 13.2203 21.41 16.3975 21.41 21.2006C21.41 24.0308 20.4236 26.3167 18.4506 28.0583C16.4776 29.8 13.8856 30.6708 10.6744 30.6708Z" fill="#374151"/>
<path d="M82.6909 30.283H75.7515V0.872285H87.2831C90.1133 0.872285 92.474 1.77713 94.3654 3.58681C96.2703 5.38289 97.2228 7.71642 97.2228 10.5874C97.2228 11.6351 97.0118 12.642 96.59 13.6081C96.1682 14.5606 95.624 15.3565 94.9573 15.9961C94.3041 16.6356 93.5762 17.1458 92.7734 17.5268C91.9706 17.9078 91.1814 18.0983 90.4058 18.0983H89.6711V18.1391C91.508 18.2071 92.8754 18.9419 93.7735 20.3434L100.427 30.283H94.3654C93.6714 30.283 93.0523 30.1402 92.5081 29.8544C91.9774 29.5687 91.474 29.0244 90.9977 28.2216L85.834 20.323H82.6909V30.283Z" fill="#374151"/>
<path d="M122.611 0.872285H127.652L115.182 30.283H109.018L96.5677 0.872285H101.609C103.201 0.872285 104.317 1.63426 104.956 3.1582L111.079 17.8942C111.555 19.0099 111.862 20.6019 111.998 22.6701H112.202C112.338 20.6563 112.644 19.0644 113.12 17.8942L119.264 3.1582C119.876 1.63426 120.992 0.872285 122.611 0.872285Z" fill="#374151"/>
<path d="M136.528 30.283H129.589V0.872285H136.528V30.283Z" fill="#374151"/>
<path d="M161.122 0.872285H168V30.283H162.918C162.033 30.283 161.231 29.7728 160.51 28.7523L148.223 10.6895H148.121C148.692 12.1046 148.964 13.5605 148.937 15.0572L148.896 30.283H141.998V0.872285L147.57 0.892696C148.318 0.892696 148.917 1.04917 149.366 1.36212C149.815 1.66147 150.311 2.21254 150.856 3.01533L161.877 19.3025H161.979C161.38 17.8193 161.081 16.2818 161.081 14.6898L161.122 0.872285Z" fill="#374151"/>
<path d="M46.5251 7.51229C46.5251 7.51229 46.5251 4.09029 46.5251 3.40996C46.5048 1.70913 44.9741 1.04233 44.0403 1.04233H23.5435V7.51229H31.5646C31.5646 15.8283 31.5374 19.2222 31.5374 27.0515C31.7075 29.6027 32.728 30.4531 34.2588 30.4531H38.504V7.51229H46.5251Z" fill="#374151"/>
<path d="M83.5314 13.8011L82.3208 7.89941C79.6033 8.20136 78.4302 8.69273 75.7775 9.80386L75.759 9.81159V16.6763C78.4804 15.3156 80.3536 14.5577 83.5314 13.8011Z" fill="white"/>
<path d="M67.9557 30.4394H72.997L60.5265 1.02869H54.3627L41.9126 30.4394H47.1852C48.3757 30.4394 48.3757 30.283 53.6483 27.3915C60.2816 24.16 69.4491 18.9278 75.7535 16.6762C75.7535 16.6762 75.7535 12.6975 75.7535 9.80604C69.4604 12.3573 60.2816 17.7747 60.2816 17.7747C60.2816 17.7747 55.9444 20.3906 55.6893 20.5882C53.6483 21.7788 53.4782 21.9489 51.9475 23.4796C51.9475 23.4796 51.9475 23.4796 51.8454 23.3776C52.6278 22.4591 54.3287 19.7378 54.8389 18.3771C56.0295 15.8259 56.0295 15.4857 56.0295 15.4857C56.6554 13.7849 57.2065 10.7098 57.3425 8.6416H57.5466C57.6827 10.6554 57.9888 12.2474 58.4651 13.4175L64.6085 28.1535C65.2208 29.6775 66.3365 30.4394 67.9557 30.4394Z" fill="#374151"/>
<path d="M77.1758 7.4096H82.6445L84.2283 2.30042L85.9914 7.4096H91.4003L81.2616 16.3736L82.6445 11.8339L81.1102 9.56402L77.1758 7.4096Z" fill="white"/>
<path d="M89.1304 15.9197L85.6499 13.9525L87.7685 11.9852L89.1304 15.9197Z" fill="white"/>
</svg>
