<svg width="1007" height="181" viewBox="0 0 1007 181" fill="none" xmlns="http://www.w3.org/2000/svg">
<path d="M63.9265 180.779C41.0287 180.779 19.7198 171.163 0 151.932L8.80059 136.042C11.6526 130.99 15.8492 128.016 21.3903 127.12C26.9314 126.223 32.4318 127.446 37.8914 130.787C48.7292 137.876 57.4075 141.461 63.9265 141.543C71.0159 141.624 76.557 140.239 80.5498 137.387C84.6242 134.535 86.6613 130.135 86.6613 124.186C86.6613 120.438 84.8279 117.056 81.161 114.041C77.4941 110.944 71.8307 108.011 64.171 105.24C45.8364 99.0474 32.2688 91.5506 23.4682 82.75C14.7491 73.8679 10.3896 63.3153 10.3896 51.0923C10.3896 35.8542 15.6455 23.5497 26.1573 14.1787C36.6691 4.72624 50.3997 0 67.3489 0C76.6385 0 86.0502 1.71122 95.5842 5.13367C105.2 8.55612 113.022 13.4861 119.052 19.9236L110.985 33.98C108.785 37.7285 106.055 40.5805 102.796 42.5362C99.5363 44.4919 96.3176 45.429 93.1396 45.3475C90.0431 45.266 86.9465 44.6548 83.8501 43.514C78.4719 40.5805 72.9715 39.1137 67.3489 39.1137C62.7042 39.1137 58.9558 40.2138 56.1037 42.4139C53.3332 44.5326 51.9479 47.3846 51.9479 50.9701C51.9479 54.2295 53.8629 57.1631 57.6927 59.7707C61.5226 62.2968 67.4712 64.7006 75.5384 66.9822C110.659 76.2718 128.22 95.299 128.22 124.064C128.22 141.013 122.312 154.703 110.496 165.133C98.6807 175.564 83.1574 180.779 63.9265 180.779Z" fill="#374151"/>
<path d="M495.216 178.456H453.658V2.32237H522.718C539.667 2.32237 553.805 7.74125 565.132 18.579C576.54 29.3353 582.244 43.3103 582.244 60.504C582.244 66.7785 580.981 72.8086 578.455 78.5941C575.929 84.2982 572.669 89.0652 568.677 92.8951C564.765 96.725 560.406 99.7807 555.598 102.062C550.79 104.344 546.064 105.485 541.419 105.485H537.019V105.729C548.02 106.137 556.209 110.537 561.587 118.93L601.434 178.456H565.132C560.976 178.456 557.268 177.601 554.009 175.89C550.831 174.178 547.816 170.919 544.964 166.111L514.04 118.808H495.216V178.456Z" fill="#374151"/>
<path d="M734.287 2.32237H764.478L689.795 178.456H652.882L578.321 2.32237H608.512C618.046 2.32237 624.728 6.88564 628.558 16.0122L665.227 104.263C668.079 110.944 669.913 120.478 670.727 132.864H671.95C672.765 120.804 674.598 111.27 677.45 104.263L714.242 16.0122C717.908 6.88564 724.59 2.32237 734.287 2.32237Z" fill="#374151"/>
<path d="M817.637 178.456H776.079V2.32237H817.637V178.456Z" fill="#374151"/>
<path d="M964.921 2.32237H1006.11V178.456H975.677C970.38 178.456 965.573 175.401 961.254 169.289L887.671 61.1152H887.06C890.482 69.5898 892.112 78.3089 891.949 87.2725L891.705 178.456H850.391V2.32237L883.76 2.44461C888.242 2.44461 891.827 3.38171 894.516 5.2559C897.205 7.04861 900.179 10.3488 903.439 15.1566L969.443 112.696H970.054C966.469 103.814 964.676 94.6063 964.676 85.0723L964.921 2.32237Z" fill="#374151"/>
<path d="M278.628 42.0878C278.628 42.0878 278.628 21.5942 278.628 17.5199C278.506 7.33402 269.339 3.34075 263.747 3.34075H140.997V42.0878H189.033C189.033 91.8905 188.87 112.216 188.87 159.103C189.889 174.382 196 179.475 205.168 179.475H230.592V42.0878H278.628Z" fill="#374151"/>
<path d="M409.716 177.946H439.907L365.224 1.81242H328.311L253.75 177.946H276.406C291.812 178.531 297.25 176.718 303.987 164.257L340.656 76.0063C343.508 69.3243 345.341 59.7904 346.156 47.4044H347.379C348.193 59.4644 350.027 68.9984 352.879 76.0063L389.67 164.257C393.337 173.383 400.019 177.946 409.716 177.946Z" fill="#374151"/>
<path d="M462.187 39.6602H494.938L504.423 9.0625L514.982 39.6602H560.969C527.438 51.6562 442.5 67 295.438 174.906C299.389 170.777 305.6 155.371 309.5 151.5C392.5 80.5 451.5 56.5 451.5 56.5L477.594 46.2188L462.187 39.6602Z" fill="#374151"/>
<path d="M462.188 39.6602H494.938L504.424 9.0625L514.983 39.6602H560.969C543.124 46.0444 503.989 56.3179 453.7 78.8438C453.7 69.3498 453.7 63.0054 453.7 58.5285L453.7 55.6L477.594 46.2188L462.188 39.6602Z" fill="white"/>
<path d="M530.156 83.375L503.997 68.9268L522.755 61.9249L530.156 83.375Z" fill="white"/>
<path d="M481.038 83.375L496.625 71.4124L483.575 76.125L481.038 83.375Z" fill="white"/>
</svg>
