<svg width="32" height="45" viewBox="0 0 32 45" fill="none" xmlns="http://www.w3.org/2000/svg">
<g opacity="0.5">
<rect x="1" y="1" width="30" height="43" rx="15" fill="white" stroke="#1F2937" stroke-width="2"/>
<rect x="2" y="23" width="28" height="2" fill="#1F2937"/>
<path d="M20.8402 11.4596L20.5126 11.7894C20.4095 11.8924 20.2724 11.9492 20.1258 11.9492C19.9793 11.9492 19.8419 11.8924 19.7389 11.7894L16.0022 8.05265L12.2613 11.7936C12.1584 11.8966 12.0211 11.9532 11.8746 11.9532C11.7281 11.9532 11.5907 11.8966 11.4876 11.7936L11.16 11.4658C10.9467 11.2526 10.9467 10.9054 11.16 10.6922L15.614 6.22215C15.7169 6.11922 15.8541 6.0467 16.0019 6.0467H16.0036C16.1502 6.0467 16.2874 6.1193 16.3903 6.22215L20.8402 10.6801C20.9433 10.783 20.9998 10.9243 21 11.0708C21 11.2174 20.9433 11.3567 20.8402 11.4596Z" fill="#1F2937"/>
<g clip-path="url(#clip0)">
<path d="M11.1598 15.5404L11.4874 15.2106C11.5905 15.1076 11.7276 15.0508 11.8742 15.0508C12.0207 15.0508 12.1581 15.1076 12.2611 15.2106L15.9978 18.9474L19.7387 15.2064C19.8416 15.1034 19.9789 15.0468 20.1254 15.0468C20.2719 15.0468 20.4093 15.1034 20.5124 15.2064L20.84 15.5342C21.0533 15.7474 21.0533 16.0946 20.84 16.3078L16.386 20.7779C16.2831 20.8808 16.1459 20.9533 15.9981 20.9533L15.9964 20.9533C15.8498 20.9533 15.7126 20.8807 15.6097 20.7779L11.1598 16.3199C11.0567 16.217 11.0002 16.0757 11 15.9292C11 15.7826 11.0567 15.6433 11.1598 15.5404Z" fill="#1F2937"/>
</g>
<rect x="15" y="8" width="2" height="12" fill="#1F2937"/>
</g>
<defs>
<clipPath id="clip0">
<rect width="10" height="10" fill="white" transform="matrix(-1 -8.74228e-08 -8.74228e-08 1 21 13)"/>
</clipPath>
</defs>
</svg>
