<svg width="16" height="16" viewBox="0 0 16 16" fill="none" xmlns="http://www.w3.org/2000/svg">
<path d="M3.27129 3.74976H2.34473V6.53082H2.9697V5.51776H3.27132C3.75879 5.51776 4.15535 5.12122 4.15535 4.63376C4.15535 4.14629 3.75876 3.74976 3.27129 3.74976ZM3.27129 4.89282H2.96966V4.37472H3.27129C3.41413 4.37472 3.53035 4.49094 3.53035 4.63376C3.53035 4.77657 3.41416 4.89282 3.27129 4.89282Z" fill="#6B7280"/>
<path d="M5.48199 3.74976H4.62402V6.53082H5.48199C6.1703 6.53082 6.7303 5.97082 6.7303 5.28251V4.9981C6.7303 4.30976 6.1703 3.74976 5.48199 3.74976ZM6.10534 5.28251C6.10534 5.62622 5.82571 5.90588 5.48196 5.90588H5.24896V4.37472H5.48196C5.82568 4.37472 6.10534 4.65435 6.10534 4.9981V5.28251Z" fill="#6B7280"/>
<path d="M7.19922 6.53082H7.82415V5.46838H8.60537V4.84344H7.82415V4.37472H8.60537V3.74976H7.19922V6.53082Z" fill="#6B7280"/>
<path d="M15.5312 3.45094L12.0803 0H4.21948V1.87487H0.469727V8.40566H4.21944V14.5927H8.63991L9.87532 16L11.1107 14.5927H15.5311V3.45094H15.5312ZM12.3548 1.60028L13.9308 3.17631H12.3548V1.60028ZM1.40716 2.81228H9.54251V7.46819H1.40716V2.81228ZM8.32848 12.8169H9.17223V10.2805H10.5784V12.8169H11.4221L9.87532 14.579L8.32848 12.8169ZM11.9336 13.6552L13.4924 11.8795H11.5158V9.34306H8.23476V11.8795H6.25816L7.81701 13.6552H5.15688V8.40566H10.4799V1.87487H5.15691V0.937437H11.4174V4.11375H14.5938V13.6552H11.9336Z" fill="#6B7280"/>
</svg>
