<svg width="21" height="21" viewBox="0 0 21 21" fill="none" xmlns="http://www.w3.org/2000/svg">
<path d="M19.3667 5.49205H17.1394V1.44074C17.1394 1.05416 16.826 0.740723 16.4394 0.740723H4.56065C4.17408 0.740723 3.86064 1.05412 3.86064 1.44074V5.49205H1.63332C0.732703 5.49205 0 6.2248 0 7.12542V14.1679C0 15.0685 0.732703 15.8012 1.63332 15.8012H3.86072V19.5588C3.86072 19.9454 4.17412 20.2588 4.56073 20.2588H16.4393C16.8258 20.2588 17.1393 19.9454 17.1393 19.5588V15.8012H19.3667C20.2673 15.8012 21 15.0685 21 14.1679V7.12542C21 6.22484 20.2673 5.49205 19.3667 5.49205ZM5.26062 2.14075H15.7394V5.49205H5.26062V2.14075ZM15.7393 18.8588H5.26075C5.26075 18.722 5.26075 13.3011 5.26075 13.1319H15.7393C15.7393 13.3053 15.7393 18.7273 15.7393 18.8588ZM16.4394 9.60244H14.6575C14.2709 9.60244 13.9575 9.28903 13.9575 8.90242C13.9575 8.51581 14.2709 8.20241 14.6575 8.20241H16.4394C16.8259 8.20241 17.1394 8.51581 17.1394 8.90242C17.1394 9.28903 16.826 9.60244 16.4394 9.60244Z" fill="#374151"/>
</svg>
