<svg width="70" height="70" viewBox="0 0 70 70" fill="none" xmlns="http://www.w3.org/2000/svg">
<path d="M21.875 0H0V21.875H21.875V0ZM17.5 17.5H4.375V4.375H17.5V17.5Z" fill="#111827"/>
<path d="M13.125 8.75H8.75V13.125H13.125V8.75Z" fill="#111827"/>
<path d="M48.125 0V21.875H70V0H48.125ZM65.625 17.5H52.5V4.375H65.625V17.5Z" fill="#111827"/>
<path d="M61.25 8.75H56.875V13.125H61.25V8.75Z" fill="#111827"/>
<path d="M0 70H21.875V48.125H0V70ZM4.375 52.5H17.5V65.625H4.375V52.5Z" fill="#111827"/>
<path d="M13.125 56.875H8.75V61.25H13.125V56.875Z" fill="#111827"/>
<path d="M43.75 0H35V4.375H43.75V0Z" fill="#111827"/>
<path d="M35 17.5H39.375V13.125H43.75V8.75H30.625V4.375H26.25V8.75V10.9375V13.125H35V17.5Z" fill="#111827"/>
<path d="M30.625 17.5H26.25V21.875H30.625V17.5Z" fill="#111827"/>
<path d="M43.75 21.875H39.375V26.25H26.25V30.625H43.75V21.875Z" fill="#111827"/>
<path d="M4.375 39.375H8.75V35H4.375V26.25H0V43.75H4.375V39.375Z" fill="#111827"/>
<path d="M13.125 26.25H8.75V30.625H13.125V26.25Z" fill="#111827"/>
<path d="M26.25 43.75H35V39.375H30.625V35H21.875V26.25H17.5V35H13.125V43.75H17.5V39.375H19.6875H21.875H26.25V43.75Z" fill="#111827"/>
<path d="M43.75 35H39.375V43.75H43.75V35Z" fill="#111827"/>
<path d="M39.375 48.125H26.25V52.5H35V65.625H26.25V70H39.375V65.625H48.125V61.25H39.375V48.125Z" fill="#111827"/>
<path d="M30.625 56.875H26.25V61.25H30.625V56.875Z" fill="#111827"/>
<path d="M48.125 48.125H43.75V56.875H48.125V48.125Z" fill="#111827"/>
<path d="M65.625 56.875H52.5V70H56.875V61.25H65.625V56.875Z" fill="#111827"/>
<path d="M70 65.625H61.25V70H70V65.625Z" fill="#111827"/>
<path d="M70 48.125H65.625V52.5H70V48.125Z" fill="#111827"/>
<path d="M52.5 52.5H56.875V39.375H48.125V43.75H52.5V52.5Z" fill="#111827"/>
<path d="M61.25 30.625H56.875V26.25H52.5V30.625H48.125V35H65.625V30.625H70V26.25H61.25V30.625Z" fill="#111827"/>
<path d="M70 39.375H61.25V43.75H70V39.375Z" fill="#111827"/>
</svg>
