<svg width="15" height="15" viewBox="0 0 15 15" fill="none" xmlns="http://www.w3.org/2000/svg">
<path d="M8.25001 10.5H6.75V12H8.25001V10.5Z" fill="#9CA3AF"/>
<path d="M7.49998 0C3.35788 0 0 3.35788 0 7.49998C0 11.6421 3.35788 15 7.49998 15C11.6421 15 15 11.6421 15 7.49998C15 3.35788 11.6421 0 7.49998 0ZM7.49998 13.6425C4.10758 13.6425 1.35749 10.8924 1.35749 7.49998C1.35749 4.10758 4.10758 1.35749 7.49998 1.35749C10.8907 1.3616 13.6383 4.10927 13.6425 7.49998C13.6425 10.8924 10.8924 13.6425 7.49998 13.6425Z" fill="#9CA3AF"/>
<path d="M10.4175 5.28752C10.0317 3.6762 8.41268 2.68276 6.80137 3.06856C5.44669 3.39292 4.4935 4.60707 4.49997 6.00003H5.99998C6.0704 5.17161 6.79905 4.55711 7.62747 4.62753C8.45589 4.69795 9.07039 5.4266 8.99997 6.25502C8.84676 7.00047 8.17802 7.52658 7.41748 7.50001C7.04883 7.50001 6.74997 7.79887 6.74997 8.16752V9.75H8.24998V8.895C9.83623 8.48596 10.8011 6.88013 10.4175 5.28752Z" fill="#9CA3AF"/>
</svg>
